$MeshFormat
4.1 0 8
$EndMeshFormat
$Entities
0 0 0 1
1 0 0 0 0 0 0 0 0 
$EndEntities
$PartitionedEntities
256
0
3 28 352 330
1 3 1 4 4 5 7 8 -1.395714 -5.345002 20.60937 0 
2 3 1 4 1 2 11 12 -4.7594 2.114698 55.85108 0 
3 3 1 4 157 158 159 160 -6.026459 -2.463593 73.97591 0 
1 3 1 3 13 14 15 4.433261 -0.1004343000000001 54.88824 8.970601 3.215584 57.39842 0 0 
2 3 1 3 2 11 12 -4.7594 0.1908052 55.85108 -4.097785 2.114698 57.39842 0 1 2 
3 3 1 3 157 158 160 -7.09074 -4.742096 73.97591 -5.828637 -2.463593 77.55714999999999 0 1 -3 
4 3 1 3 157 158 159 -6.026459 -2.463593 73.97591 -3.233601 -0.6311184 76.13914 0 1 3 
5 3 1 3 158 159 160 -6.310934 -5.807923 73.97591 -3.270128 -2.463593 76.37161999999999 0 1 -3 
6 3 1 3 157 159 160 -8.109849000000001 -4.186534 73.59853 -6.026459 -2.463593 73.97591 0 1 3 
7 3 1 3 69 70 72 7.362321 3.815567 105.8193 8.108078000000001 5.248098 106.2564 0 0 
8 3 1 3 7 12 16 0.07455575999999997 -4.883021 32 6.336884 -0.1382984 35.74317 0 0 
9 3 1 3 5 7 8 -1.395714 -5.345002 20.60937 7.56692 -2.596483 22.33766 0 1 -1 
10 3 1 3 53 54 55 3.404102 4.776693 123.8239 3.868569 5.161086 124.3357 0 0 
11 3 1 3 4 7 8 -4.40725 -5.375803000000001 20.60937 0.2808646000000001 6.676537 26.86365 0 1 1 
12 3 1 3 1 11 12 -8.166192000000001 2.114698 55.37543 -4.7594 3.991987 57.39842 0 1 -2 
13 3 1 3 177 178 179 -7.24322 -2.348863 105.9562 -6.7754 -1.292226 106.2564 0 0 
14 3 1 3 169 171 172 -8.311795999999999 -5.083646 105.2463 -6.822689 -4.584103 106.2564 0 0 
15 3 1 3 4 5 8 -1.558147 -7.846794 19.11655 -1.395714 -5.345002 20.60937 0 1 -1 
16 3 1 3 61 62 63 -7.097957 1.852614 106.0144 -6.713492 2.341223 106.7238 0 0 
17 3 1 3 1 2 12 -7.545632 -4.400987 54.94915 -4.7594 2.114698 55.87697 0 1 2 
18 3 1 3 4 5 7 -1.395714 -7.805584 19.46398 1.752955 -5.345002 20.60937 0 1 1 
19 3 1 3 149 150 152 -3.832087 -3.147993 104.5399 -2.732896 -0.9306613000000001 105.4769 0 0 
20 3 1 3 253 254 256 2.656554 1.241991 104.1818 4.122927 3.124154 105.4489 0 0 
21 3 1 3 209 210 212 7.124662 -2.703058 106.2564 8.108078000000001 -2.036509 106.2564 0 0 
22 3 1 3 9 10 12 -5.371995 2.217078 77.55714999999999 -5.133126 2.903812 78.09672999999999 0 0 
23 3 1 3 37 38 43 -8.369732000000001 4.091076 105.8676 -7.219317 4.452971 106.2564 0 0 
24 3 1 3 233 235 236 1.799594 -4.162257 123.8225 2.265294 -3.800346 124.3357 0 0 
25 3 1 3 233 234 235 2.664499 -3.97407 124.3357 2.768444 -3.668882 124.3357 0 0 
26 3 1 3 5 6 8 3.618327 -5.537125 10.58208 7.985827 0.4759823000000001 13.99686 0 0 
27 3 1 3 245 246 247 3.182237 -2.327191 105.7243 3.776495 -1.332108 106.2564 0 0 
28 3 1 3 1 2 11 -4.7594 2.114698 54.76468 -2.969423 4.571786 55.85108 0 1 -2 
1 3 1 2 255 256 3.078083 1.169304 112.4647 4.597458 2.727568 113.3852 0 0 
2 3 1 2 254 256 1.852178 0.7314087 104.0739 4.122927 3.124154 105.4489 0 1 20 
4 3 1 2 253 254 2.656554 1.165002 104.1818 4.222851 3.185414 106.2564 0 1 20 
5 3 1 2 252 254 1.552122 1.146987 107.0456 3.035763 2.705075 107.9903 0 0 
7 3 1 2 249 250 1.829568 0.9370423 119.2038 2.702393 1.922959 120.3587 0 0 
9 3 1 2 247 250 2.317385 1.131074 126.2423 2.901447 1.728033 126.3064 0 0 
10 3 1 2 246 247 3.08716 -2.327191 105.7243 3.80717 -1.332108 106.2564 0 1 27 
11 3 1 2 245 246 1.851081 -2.770687 105.0061 3.776495 -0.6741089 106.2564 0 1 27 
12 3 1 2 245 247 3.182237 -2.703058 105.7243 4.330002 -1.165002 106.2564 0 1 -27 
13 3 1 2 244 248 3.877088 -1.743688 127.1469 4.504792 -1.118426 127.2346 0 0 
14 3 1 2 243 244 3.376982 -2.938928 121.6326 4.330132 -1.946438 122.2337 0 0 
15 3 1 2 242 244 3.874876 -1.734219 124.3357 4.371719 -1.123841 124.3357 0 0 
16 3 1 2 241 242 3.428014 -1.805494 118.6256 4.303481 -0.9293502 119.1361 0 0 
17 3 1 2 241 244 3.387261 -2.72773 116.3357 4.371719 -1.942537 116.3357 0 0 
18 3 1 2 241 247 3.175433 -2.711246 110.3365 4.65017 -1.146313 110.9169 0 0 
19 3 1 2 239 240 1.788732 -5.477126 116.9899 2.763158 -4.497611 117.6795 0 0 
21 3 1 2 237 238 1.768444 -5.289259 124.3357 2.265294 -4.678882 124.3357 0 0 
22 3 1 2 235 236 1.799594 -4.279259 123.8225 2.265294 -3.800346 124.3357 0 1 24 
23 3 1 2 234 235 2.271638 -4.257282 124.3357 2.901554 -3.668882 124.8621 0 1 -25 
24 3 1 2 233 239 1.783986 -4.470208 116.3357 2.768444 -3.685371 116.3357 0 0 
25 3 1 2 233 235 1.799594 -4.473942 123.3792 2.768444 -3.668882 124.3357 0 2 24 25 
26 3 1 2 231 232 3.387261 -5.27277 116.3357 4.371719 -4.488234 116.3357 0 0 
28 3 1 2 229 230 3.475663 -5.442073 123.5572 4.338253 -4.484073 124.3357 0 0 
29 3 1 2 228 239 1.476761 -5.244587 109.9822 3.021697 -3.778078 110.81 0 0 
30 3 1 2 228 232 3.225561 -5.16866 109.9938 4.645103 -3.686724 110.7953 0 0 
32 3 1 2 226 232 3.375135 -4.406748 117.6004 4.297102 -3.489748 117.7871 0 0 
33 3 1 2 226 227 1.885419 -5.654774 101.7449 4.256208 -3.308151 102.5921 0 0 
34 3 1 2 225 226 3.387205 -4.469421 121.1128 4.370674 -3.531109 121.7586 0 0 
36 3 1 2 221 224 5.688408 -5.29066 126.2089 6.293699 -4.6777 126.6739 0 0 
37 3 1 2 221 222 6.307828 -5.289259 123.8116 6.776653 -4.484071 124.3357 0 0 
38 3 1 2 219 223 7.425703 -2.931176 117.6194 8.408643 -1.951863 118.2866 0 0 
39 3 1 2 219 220 7.427261 -1.925807 116.3357 8.411719 -1.140329 116.3357 0 0 
40 3 1 2 218 220 7.278752 -1.704704 127.1099 7.841129 -1.140527 127.3169 0 0 
42 3 1 2 217 220 7.421886 -1.890711 120.5404 8.410231 -0.9733483000000001 121.1638 0 0 
44 3 1 2 214 216 6.353842 -4.288561 126.2178 6.905663 -3.660811 126.2901 0 0 
45 3 1 2 213 214 6.311597 -1.711291 124.8156 6.941458 -1.120379 125.4058 0 0 
46 3 1 2 212 219 7.213035 -2.653931 111.0866 8.681141 -1.25529 111.7042 0 0 
47 3 1 2 211 215 5.824014 -2.925686 117.6439 6.779855 -1.95889 118.5121 0 0 
48 3 1 2 211 213 5.935022 -1.914619 119.6278 6.808384 -0.9434513 119.9092 0 0 
49 3 1 2 211 212 5.56782 -2.684117 113.9846 7.047488 -1.197953 114.1299 0 0 
50 3 1 2 210 212 7.124662 -2.703058 106.2564 8.370001999999999 -1.165002 106.2564 0 1 21 
52 3 1 2 209 210 5.850705 -3.183927 104.31 8.108078000000001 -0.7317021000000001 106.2564 0 1 21 
53 3 1 2 1 3 -9.994400000000001 -4.967582999999999 45.11704 -0.05088389999999965 4.93052 47.6182 0 0 
54 3 1 2 37 38 -8.369732000000001 3.710043 104.0985 -5.894595 5.684469 106.2564 0 1 23 
55 3 1 2 27 32 1.854187 3.24701 94.84784000000001 4.311819 5.610406 95.56650999999999 0 0 
59 3 1 2 189 190 -7.90856 -1.734219 123.8292 -7.445041 -1.123841 124.3357 0 0 
60 3 1 2 207 245 2.042191 -3.187474 97.69235 4.305087 -0.6983652999999999 99.21465999999999 0 0 
61 3 1 2 207 226 1.849326 -5.206548 93.55714999999999 4.330002 -3.322367 93.55714999999999 0 0 
62 3 1 2 5 6 -7.99332 -7.9332 3.123558 7.985827 7.955659 13.99686 0 1 26 
63 3 1 2 157 170 -9.00032 -5.192186 84.69342 -5.148481 -1.241632 87.19515 0 0 
64 3 1 2 206 207 1.210614 -5.110067 84.95834000000001 5.048763 -1.256904 87.46578 0 0 
65 3 1 2 97 98 -4.371113 1.939046 119.7386 -3.398462 2.897864 120.5344 0 0 
66 3 1 2 58 60 -6.742859 1.942646 116.3357 -5.810198 2.885349 117.0316 0 0 
68 3 1 2 58 60 -7.036436 1.193576 114.8335 -5.514743 2.727649 115.5962 0 0 
69 3 1 2 205 208 5.110433 -5.144378 77.55714999999999 8.264882999999999 -1.268722 79.26927000000001 0 0 
70 3 1 2 9 10 -6.083788 0.5583990999999999 73.35633 -1.915595 6.377031 78.09672999999999 0 1 22 
71 3 1 2 2 159 -8.093335 -6.378315 61.19528 -2.038398 -0.3385702999999998 64.48688 0 0 
72 3 1 2 137 138 -2.768439 -4.434357 123.8289 -1.872388 -3.668882 124.3357 0 0 
73 3 1 2 101 102 -3.053931 1.165002 104.5587 -1.821933 3.097112 106.2564 0 0 
74 3 1 2 85 86 5.889719 1.165002 105.2692 8.370001999999999 3.086114 106.2564 0 0 
75 3 1 2 101 103 -4.329365 1.165002 106.2564 -3.089826 2.703058 106.7032 0 0 
76 3 1 2 203 221 5.86615 -5.462521 119.6457 6.794789 -4.484095 120.3527 0 0 
77 3 1 2 203 204 5.576245 -5.222385 112.4411 7.047289 -3.735455 112.9119 0 0 
78 3 1 2 202 210 5.916615 -3.141318 96.16146999999999 8.316098999999999 -0.6812319999999998 97.45556999999999 0 0 
79 3 1 2 202 208 5.110751 -5.091812 88.75248999999999 8.98874 -1.207362 92.05741999999999 0 0 
80 3 1 2 149 150 -3.832087 -3.147993 104.5399 -2.451096 -0.7316974999999999 106.2564 0 1 19 
81 3 1 2 201 204 5.85069 -5.248098 105.3302 8.108078000000001 -3.23264 106.2564 0 0 
82 3 1 2 1 2 -7.545632 -5.037437 52.26104 -0.05040039000000007 4.571786 55.98075 0 2 17 28 
83 3 1 2 181 182 -8.410361999999999 -2.901655 120.9709 -7.432435 -1.942412 121.6341 0 0 
84 3 1 2 163 164 -8.638894000000001 -5.219809 115.4925 -7.118018 -4.318902 116.3357 0 0 
85 3 1 2 200 214 6.311634 -4.279259 124.0486 6.808444 -3.668882 124.3357 0 0 
86 3 1 2 39 62 -8.36692 0.6813955999999999 96.24796000000001 -5.871863 3.06504 97.87202000000001 0 0 
87 3 1 2 123 128 1.786028 -2.930773 117.289 2.738992 -1.953086 117.636 0 0 
88 3 1 2 199 200 5.821775 -4.461945 119.027 6.787204 -3.484988 119.8617 0 0 
89 3 1 2 199 203 5.823986 -4.470555 116.3357 6.808444 -3.68537 116.616 0 0 
90 3 1 2 99 104 -4.461301 1.133374 126.7814 -3.894205 1.736076 127.2727 0 0 
91 3 1 2 198 199 7.915285 -5.285667 125.7276 8.504396 -4.684923 125.9758 0 0 
92 3 1 2 197 198 7.411719 -5.289259 124.1529 7.908569 -4.678882 124.3357 0 0 
93 3 1 2 195 196 7.951801 -4.28181 125.2315 8.544810999999999 -3.661771 125.3825 0 0 
94 3 1 2 195 196 7.427232 -4.469874 120.9401 8.344506000000001 -3.555244 121.1606 0 0 
95 3 1 2 194 201 7.122336 -5.235178 106.8197 8.661322 -3.704454 107.0722 0 0 
96 3 1 2 13 206 1.916516 -6.274918 68.62639 8.236094 -0.1176273999999999 69.86626 0 0 
97 3 1 2 193 198 7.423303 -5.476839 120.2943 8.375425999999999 -4.504018 121.1046 0 0 
98 3 1 2 35 36 -6.792901 3.68537 116.3357 -5.808444 4.470071 116.3357 0 0 
99 3 1 2 169 171 -8.36683 -5.512067 103.7343 -5.894975 -3.247513 106.2564 0 1 14 
100 3 1 2 177 178 -8.336325 -3.089601 105.2913 -6.7754 -1.116894 106.2564 0 1 13 
101 3 1 2 193 194 7.118019 -5.27277 114.8701 8.639322999999999 -3.738379 115.6258 0 0 
102 3 1 2 4 8 -7.847324 -7.846793999999999 19.11655 0.2808645999999997 6.676537 27.8546 0 2 -11 -15 
103 3 1 2 126 128 -2.891558 4.669453 126.6799 -2.30979 5.298587 127.1727 0 0 
104 3 1 2 191 192 3.238762 2.133841 124.3357 3.868569 2.749283 126.4523 0 0 
105 3 1 2 191 255 3.434808 1.964907 118.3521 4.338538 2.938212 119.1091 0 0 
107 3 1 2 4 7 -5.542017 -7.999964 19.46398 1.752955 6.759753999999999 32 0 2 11 -18 
108 3 1 2 189 192 -8.542312000000001 -1.703666 124.8129 -7.915005 -1.134893 125.3165 0 0 
109 3 1 2 13 28 2.090888 0.09348051999999996 60.15013 8.015692 6.204516 63.14964 0 0 
110 3 1 2 188 255 3.392398 0.9368937000000001 117.923 4.357421 1.913805 118.3924 0 0 
111 3 1 2 20 29 1.785268 4.584156 118.6967 2.749211 5.450418 119.0826 0 0 
112 3 1 2 187 188 3.238625 1.123841 124.3357 3.868569 1.740117 126.4523 0 0 
113 3 1 2 186 191 3.874974 2.133841 124.3357 4.371719 2.744219 124.3357 0 0 
116 3 1 2 110 112 -4.601941 3.73222 113.9399 -3.07802 5.272715 114.8567 0 0 
117 3 1 2 183 189 -8.378905 -1.924812 118.1443 -7.416527 -0.948881 118.6903 0 0 
118 3 1 2 1 12 -10.10274 -4.400986999999999 53.76262 -4.7594 3.991987 57.39842 0 2 -12 -17 
119 3 1 2 183 184 -6.803649 -2.890028 121.0417 -5.86043 -1.939291 121.6404 0 0 
120 3 1 2 65 67 6.315605 4.701958 125.6642 6.902414 5.295169 125.7518 0 0 
121 3 1 2 182 183 -8.638730000000001 -2.562728 115.4675 -7.118018 -1.192713 116.3357 0 0 
122 3 1 2 134 135 -4.325064 -5.670445 103.8829 -1.818255 -3.249215 105.3467 0 0 
123 3 1 2 180 185 -6.794421 -1.890581 119.0783 -5.808486 -0.9676282 119.8661 0 0 
124 3 1 2 107 111 -2.747289 1.941872 118.7018 -1.787486 2.906238 119.0685 0 0 
125 3 1 2 180 183 -6.792901 -2.72773 116.3357 -5.808444 -1.942646 116.3357 0 0 
126 3 1 2 179 180 -7.100812 -2.708968 111.0301 -5.518027 -1.169866 112.4099 0 0 
127 3 1 2 5 8 -7.998505 -7.846794000000001 10.58208 7.985826999999999 7.999998 22.33766 0 3 -9 15 -26 
129 3 1 2 178 179 -7.24322 -2.348863 105.9562 -6.7754 -1.292226 106.2564 0 1 13 
130 3 1 2 13 14 2.123739 -6.363823 60.9317 8.227816000000001 -0.0669417499999998 64.43657 0 0 
131 3 1 2 7 12 0.07455575999999997 -4.883021 32 6.336884 -0.1382984 35.74317 0 1 8 
132 3 1 2 117 118 -3.088227 3.219244 105.2536 -1.871748 5.248098 106.2564 0 0 
133 3 1 2 177 179 -7.24322 -3.091339 105.4734 -5.85098 -1.165002 106.2564 0 1 -13 
134 3 1 2 38 39 -8.329598000000001 3.246325 94.35005 -5.866515 5.596672 94.94134 0 0 
135 3 1 2 3 4 -7.794302 -5.039606 32 -0.07907952000000007 4.925508 40.44625 0 0 
137 3 1 2 123 124 1.783986 -1.925086 116.3357 2.768444 -1.140332 116.6959 0 0 
138 3 1 2 46 48 -8.393333 4.563641 117.5793 -7.437253 5.415079 118.2794 0 0 
139 3 1 2 59 60 -6.807206 0.9311375 121.6043 -5.88771 1.929009 122.267 0 0 
140 3 1 2 143 144 -2.752901 -4.470444 116.3357 -1.768444 -3.685371 116.3357 0 0 
141 3 1 2 173 175 -6.808443 -5.484019 123.2481 -5.841632 -4.524895 124.3357 0 0 
142 3 1 2 173 174 -6.792901 -5.27277 115.958 -5.808444 -4.488357 116.3357 0 0 
143 3 1 2 172 174 -7.04325 -5.223778 114.0668 -5.570125 -3.68537 114.867 0 0 
144 3 1 2 10 12 -8.193516000000001 1.208047 77.55714999999999 -5.117454 5.144378 79.35896 0 1 22 
145 3 1 2 170 177 -8.363852 -3.137504 99.33247 -5.861854 -0.6780267 101.2826 0 0 
146 3 1 2 169 172 -8.311795999999999 -5.248098 105.2463 -6.822689 -4.584103 106.2564 0 1 -14 
147 3 1 2 169 170 -8.330836 -5.206549 91.9318 -5.110081 -3.093145 93.55714999999999 0 0 
148 3 1 2 119 120 -5.070081 2.948254 91.84247999999999 -1.070081 5.089531 93.55714999999999 0 0 
149 3 1 2 168 174 -6.78243 -4.459005 121.6529 -5.840441 -3.474241 122.2598 0 0 
150 3 1 2 167 168 -6.938483 -4.286019 126.9116 -6.346107 -3.692833 127.1524 0 0 
151 3 1 2 166 167 -8.507173 -5.299049 128.4385 -7.955618 -4.6692 128.696 0 0 
153 3 1 2 165 166 -7.908562 -5.289259 123.8148 -7.444952 -4.678882 124.3357 0 0 
154 3 1 2 17 20 1.789592 3.478801 120.2692 2.762001 4.46415 121.0418 0 0 
155 3 1 2 164 166 -8.411688 -5.44536 122.7409 -7.444082 -4.484072 123.3349 0 0 
156 3 1 2 19 22 1.810524 3.685535 106.2564 3.047085 5.248098 107.0687 0 0 
158 3 1 2 21 24 3.131179 3.685436 113.9917 4.665355 5.272724 114.7933 0 0 
159 3 1 2 163 172 -8.705253000000001 -5.183387 109.8787 -7.203268 -3.709198 110.4798 0 0 
160 3 1 2 161 162 -8.411714999999999 -4.279259 124.3357 -7.914868 -3.668882 124.3357 0 0 
161 3 1 2 161 162 -8.286381 -4.426898 119.19 -7.413555 -3.491256 119.8276 0 0 
162 3 1 2 161 163 -8.405256 -4.470675 117.6384 -7.417936 -3.498137 118.3508 0 0 
163 3 1 2 69 72 5.867807 3.219277 104.2234 8.108078000000001 5.738743 106.2564 0 1 -7 
164 3 1 2 159 160 -8.109849000000001 -6.375166 73.59853 -3.270128 -2.463593 76.37161999999999 0 2 5 6 
165 3 1 2 85 88 6.002062 0.6771754000000001 99.18312 8.191319 3.188135 100.2022 0 0 
166 3 1 2 158 159 -6.310934 -5.807923 73.97591 -1.915279 -0.6311184000000001 77.55714999999999 0 2 4 5 
167 3 1 2 158 160 -7.09074 -6.23285 73.97591 -3.270128 -2.463593 77.55714999999999 0 2 3 -5 
168 3 1 2 115 118 -3.028664 3.690329 109.4532 -1.500621 5.164961 110.4853 0 0 
169 3 1 2 29 32 2.295794 4.67825 125.2312 2.900847 5.287274 125.3385 0 0 
170 3 1 2 25 26 1.915359 0.03291310999999997 73.25064999999999 7.604875 6.381257 77.55714999999999 0 0 
171 3 1 2 33 34 -6.808443 4.484071 124.0782 -6.243666 5.48407 124.3357 0 0 
172 3 1 2 157 158 -7.09074 -4.742096 73.97591 -2.575287 -0.6311184000000001 77.55714999999999 0 2 3 4 
173 3 1 2 12 16 0.07455575999999997 -4.883021 32 7.926576 -0.1382984 37.70329 0 1 8 
174 3 1 2 157 160 -8.264821 -5.144378 73.59853 -5.828637 -2.463593 77.55714999999999 0 2 -3 -6 
175 3 1 2 157 159 -8.130061 -4.186534 73.58031 -3.233601 -0.03545510000000007 76.13914 0 2 -4 6 
176 3 1 2 153 156 -4.351861 -2.939022 122.7206 -3.372963 -1.93939 123.6029 0 0 
177 3 1 2 155 156 -3.86856 -1.734219 124.0673 -3.371719 -1.123841 124.3357 0 0 
178 3 1 2 155 160 -4.371718 -1.734219 124.3357 -3.874868 -1.123841 124.3357 0 0 
179 3 1 2 187 188 3.874876 1.123841 124.3357 4.371719 1.734219 124.3357 0 0 
180 3 1 2 153 154 -4.356176 -2.677246 114.8176 -3.078018 -1.595864 116.3357 0 0 
181 3 1 2 89 91 7.906417 1.123841 123.8105 8.381373999999999 1.734219 124.3357 0 0 
182 3 1 2 151 152 -2.752901 -1.937706 114.8565 -1.474743 -1.1405 116.3357 0 0 
183 3 1 2 88 92 7.18457 1.193351 115.5498 8.640574000000001 2.727727 116.3357 0 0 
184 3 1 2 150 154 -4.626841 -2.722874 109.1206 -3.088107 -1.202363 109.8741 0 0 
185 3 1 2 178 182 -8.70205 -2.718292 112.7519 -7.118023 -1.142264 113.4005 0 0 
186 3 1 2 150 152 -4.288836 -3.177206 103.5484 -2.732896 -0.9306613000000001 105.4769 0 1 19 
187 3 1 2 201 202 5.864492 -5.615896 97.5348 8.333027 -3.247017 98.95237 0 0 
188 3 1 2 149 151 -3.007411 -2.697903 108.8587 -1.550561 -1.235905 109.8564 0 0 
189 3 1 2 149 152 -3.832087 -3.147993 104.5266 -1.822367 -0.67411 105.4769 0 1 -19 
190 3 1 2 99 100 -4.336179 0.9629447 122.7653 -3.407929 1.896051 122.8175 0 0 
191 3 1 2 63 64 -6.941488 1.126992 128.0529 -6.357775 1.728866 128.3253 0 0 
192 3 1 2 77 78 7.914915 3.668882 124.3357 8.411719 4.279259 124.3357 0 0 
193 3 1 2 11 12 -8.166192000000001 0.07321880000000003 55.37543 -4.097785 3.991987 57.39842 0 2 2 12 
195 3 1 2 147 151 -2.757426 -2.921882 118.1199 -1.774249 -1.963641 118.5004 0 0 
196 3 1 2 146 148 -2.241049 -1.740001 126.2778 -1.648333 -1.123128 126.7005 0 0 
197 3 1 2 145 152 -2.753951 -1.840096 118.5749 -1.815032 -0.9301803 119.327 0 0 
198 3 1 2 141 142 -2.735681 -5.289259 123.8058 -2.248753 -4.484074 124.3357 0 0 
199 3 1 2 14 15 0.2977420999999998 -5.031882 52.29491 9.997026 3.215584000000001 57.39842 0 1 1 
200 3 1 2 142 143 -2.220963 -5.288109 125.277 -1.635722 -4.680523 125.5241 0 0 
201 3 1 2 140 144 -2.752901 -5.272757 116.3357 -1.768444 -4.487956 116.3357 0 0 
202 3 1 2 140 142 -2.754594 -5.401219 118.9895 -1.81416 -4.485864 119.5301 0 0 
203 3 1 2 137 140 -2.260886 -4.261524 125.3846 -1.635368 -3.701331 125.7666 0 0 
204 3 1 2 116 126 -2.751912 4.507518 121.0624 -1.781924 5.410068 121.395 0 0 
205 3 1 2 167 168 -6.3052 -4.28499 126.4523 -5.675333 -3.662499 126.4523 0 0 
206 3 1 2 137 143 -2.729636 -4.469608 118.1035 -1.797687 -3.474684 118.5311 0 0 
207 3 1 2 136 152 -4.314876 -3.139285 96.17631 -1.890994 -0.7083576 97.33831000000001 0 0 
208 3 1 2 136 158 -4.933588 -5.204244 81.95572 -1.176635 -1.207811 83.80454 0 0 
209 3 1 2 135 136 -5.070079 -5.094013 91.93732 -1.070081 -2.944305 93.55714999999999 0 0 
210 3 1 2 134 144 -3.012365 -5.23133 108.541 -1.496347 -3.685424 109.3035 0 0 
211 3 1 2 62 64 -8.704504999999999 1.147533 108.7122 -7.16747 2.646542 109.4292 0 0 
212 3 1 2 42 44 -8.410734 3.525485 120.2692 -7.416155 4.418703 120.4771 0 0 
213 3 1 2 57 58 -6.777106 1.956881 120.9527 -5.839874 2.938056 121.6408 0 0 
214 3 1 2 133 134 -4.329053 -5.248098 106.2564 -3.078018 -3.710043 106.2564 0 0 
215 3 1 2 15 16 0.1393392000000002 -4.766925000000001 44.60294 10.12695 4.931884 49.12841 0 0 
216 3 1 2 131 139 -3.868561 -5.289259 123.8161 -3.403818 -4.678882 124.3357 0 0 
217 3 1 2 49 51 -8.390345 1.015277 118.3805 -7.449099 1.925569 119.1052 0 0 
219 3 1 2 26 28 1.919532 0.05467230000000001 68.98105 8.175639 6.380629 73.29854 0 0 
220 3 1 2 130 132 -4.335861 -5.431101 116.9782 -3.377306 -4.496376 117.3787 0 0 
221 3 1 2 71 88 5.889326 1.206566 92.00986 9.110080999999999 3.307087 93.55714999999999 0 0 
222 3 1 2 117 119 -4.321503 3.260722 103.6036 -1.811387 5.682711 104.4392 0 0 
223 3 1 2 130 133 -4.665389 -5.219425 114.8111 -3.145208 -3.685377 115.5897 0 0 
224 3 1 2 129 130 -4.365054 -4.472751 121.2036 -3.371859 -3.511667 122.2537 0 0 
225 3 1 2 101 104 -4.290364 0.7338712999999999 101.5256 -1.81844 3.112617 104.2136 0 0 
226 3 1 2 127 128 1.769972 -2.89473 121.5509 2.757359 -1.95932 122.0258 0 0 
227 3 1 2 67 68 5.841736 4.678882 123.818 6.308642 5.48407 124.3357 0 0 
228 3 1 2 125 126 -2.473284 4.634669 123.3473 -1.768444 5.484069 124.3357 0 0 
229 3 1 2 247 248 2.274696 1.12333 127.478 2.876311 1.727802 127.6618 0 0 
230 3 1 2 112 117 -4.625235 3.729746 107.6497 -3.082379 5.272602 108.3036 0 0 
231 3 1 2 123 246 1.566539 -2.715169 109.6717 3.058884 -1.169697 110.272 0 0 
234 3 1 2 105 106 -2.266008 1.123841 123.8176 -1.768444 1.929024 124.3357 0 0 
235 3 1 2 121 122 1.800872 -1.929024 123.823 2.664499 -0.9711809 124.3357 0 0 
236 3 1 2 87 88 7.252849 1.158403 110.6123 8.679819 2.685598 111.4977 0 0 
237 3 1 2 10 11 -8.263494 0.07214103000000005 66.68713 -1.915429 6.381217 70.58002 0 0 
238 3 1 2 7 8 -4.40725 -5.375802999999999 20.60937 7.913773 7.852205 27.86319 0 2 9 11 
239 3 1 2 21 22 3.085312 3.710043 106.2564 4.330002 5.248098 106.9451 0 0 
240 3 1 2 93 94 -3.86856 4.678882 123.8306 -3.404499 5.289259 124.3357 0 0 
241 3 1 2 7 16 0.07455575999999997 -4.883021 32 8 4.883021 35.85571 0 1 -8 
242 3 1 2 114 118 -2.260321 3.693684 127.053 -1.651352 4.250994 127.3396 0 0 
243 3 1 2 114 116 -2.751985 3.491852 121.2199 -1.784971 4.452911 121.7616 0 0 
244 3 1 2 75 77 7.460207 3.48605 119.5388 8.353616000000001 4.473279 120.4455 0 0 
245 3 1 2 113 114 -2.84165 3.668882 124.3357 -2.273259 4.279259 124.8865 0 0 
246 3 1 2 83 84 5.912388 0.9290316 123.7881 6.775305 1.887309 124.3357 0 0 
247 3 1 2 50 51 -8.540480000000001 1.151397 125.3139 -7.9423 1.727534 125.9024 0 0 
248 3 1 2 17 18 2.26646 3.668882 123.8066 2.736216 4.474066 124.3357 0 0 
250 3 1 2 26 71 5.115934 1.258208 80.82504 9.104132 5.198767 82.26414 0 0 
251 3 1 2 104 107 -3.057253 1.148266 113.2866 -1.508646 2.658814 114.0173 0 0 
252 3 1 2 51 52 -8.396176000000001 1.140329 116.3357 -7.411719 1.924873 116.6511 0 0 
253 3 1 2 59 63 -6.922381 1.115736 126.3413 -6.336511 1.737312 126.3691 0 0 
254 3 1 2 106 108 -2.735174 1.123841 123.8161 -2.271593 1.734219 124.3357 0 0 
255 3 1 2 106 107 -2.739166 0.9390495 117.8919 -1.782126 1.916801 118.403 0 0 
256 3 1 2 104 120 -4.31157 0.7305713 96.52661999999999 -1.81791 3.109187 97.84632999999999 0 0 
257 3 1 2 103 104 -4.504229 1.136256 129.0569 -3.926717 1.734363 129.3155 0 0 
258 3 1 2 102 104 -2.962941 1.148187 109.3504 -1.480452 2.651594 109.7352 0 0 
259 3 1 2 37 43 -8.369732000000001 4.091076 105.8676 -7.118018 5.248098 106.2564 0 1 -23 
260 3 1 2 193 195 7.483971 -4.440894 118.1402 8.401579 -3.474192 118.9473 0 0 
261 3 1 2 98 100 -4.356176 1.140329 116.3357 -3.371719 1.925329 116.3357 0 0 
262 3 1 2 98 103 -4.663179 1.167253 112.2189 -3.086233 2.615326 113.2714 0 0 
263 3 1 2 46 47 -7.919354 4.484077 123.8358 -7.445516 5.484068 124.3357 0 0 
264 3 1 2 97 100 -4.504683 2.133841 124.3357 -3.874868 2.744219 126.4523 0 0 
265 3 1 2 94 110 -4.318193 4.484769 116.6484 -3.372126 5.419648 117.0876 0 0 
266 3 1 2 94 95 -4.371718 4.678882 124.0454 -3.874868 5.289259 124.3357 0 0 
267 3 1 2 17 31 1.654525 3.666453 126.1977 2.254617 4.281315 126.3142 0 0 
268 3 1 2 92 96 7.440037 1.943932 121.5058 8.400962 2.917455 122.1912 0 0 
269 3 1 2 54 55 3.404102 4.678882 123.3202 4.371702 5.442728 124.3357 0 1 10 
270 3 1 2 27 28 1.212265 1.24625 84.41471 4.933527 5.201864 86.88225 0 0 
271 3 1 2 91 92 7.435791 0.9344352 117.5931 8.373244 1.920216 117.9238 0 0 
272 3 1 2 90 91 7.411719 1.123841 124.3357 7.908569 1.734219 124.3357 0 0 
273 3 1 2 70 75 7.118324 3.685457 112.8498 8.705418999999999 5.272771 113.2918 0 0 
274 3 1 2 31 32 2.33073 4.68562 128.0625 2.901403 5.286122 128.0741 0 0 
275 3 1 2 24 54 3.387261 4.488259 116.3357 4.371719 5.27277 116.3357 0 0 
276 3 1 2 35 37 -7.019594 3.688334 110.5876 -5.538781 5.241188 111.9087 0 0 
277 3 1 2 70 72 7.362321 3.710043 105.8193 8.370001999999999 5.248098 106.2564 0 1 7 
278 3 1 2 36 40 -6.76144 3.482 119.4 -5.853632 4.474065 119.906 0 0 
279 3 1 2 61 63 -7.097957 1.165002 105.8954 -5.85016 2.703058 107.0844 0 1 -16 
280 3 1 2 13 15 2.01397 -0.1004342999999999 54.88824 8.970601 5.038503 57.39842 0 1 -1 
281 3 1 2 2 11 -4.7594 0.1908052000000002 54.76468 -1.915279 4.571786 57.39842 0 2 2 28 
282 3 1 2 58 63 -7.079056 1.160098 110.3842 -5.563491 2.597562 111.4412 0 0 
283 3 1 2 22 32 1.818305 3.291348 102.1451 4.312962 5.738041 103.2978 0 0 
284 3 1 2 82 84 5.820095 0.9383768 118.2109 6.801937 1.913379 118.9846 0 0 
285 3 1 2 82 87 5.514978 1.192381 114.7715 7.03542 2.727721 115.5825 0 0 
286 3 1 2 81 82 5.831266 1.939034 121.0666 6.781121 2.923226 121.7162 0 0 
287 3 1 2 154 155 -4.353658 -1.9187 118.3061 -3.372414 -0.9743927999999999 118.8046 0 0 
288 3 1 2 79 80 6.311633 3.668882 124.3357 6.890949 4.279259 124.8123 0 0 
289 3 1 2 78 79 5.899372 3.474657 120.1047 6.723361 4.473898 120.5822 0 0 
290 3 1 2 34 36 -6.305048 4.690826 125.6895 -5.677096 5.260325 125.9311 0 0 
291 3 1 2 75 76 7.427261 4.487785 116.3357 8.411719 5.272771 116.3357 0 0 
292 3 1 2 74 76 7.280097 4.674894 125.2075 7.906847 5.292919 125.7541 0 0 
294 3 1 2 73 76 7.459355 4.496767 118.223 8.410038 5.46528 118.7441 0 0 
295 3 1 2 52 64 -8.705418999999999 1.140449 114.7245 -7.118373 2.72769 115.1739 0 0 
296 3 1 2 71 72 5.889326 3.338315 93.55714999999999 8.370001999999999 5.206544 94.48533999999999 0 0 
297 3 1 2 9 120 -5.06367 1.208592 82.9517 -1.096235 5.131162 84.97714000000001 0 0 
298 3 1 2 6 8 3.618327 -5.537125 10.58208 7.985827 0.4759823000000001 14.82159 0 1 26 
299 3 1 2 65 70 5.515265 3.705206 110.9663 7.059346 5.242536 112.2705 0 0 
300 3 1 2 53 54 3.404102 4.678882 123.8239 3.868569 5.161086 124.3357 0 1 10 
301 3 1 2 44 48 -8.396176000000001 4.485052 116.3357 -7.413152 5.484069 117.1021 0 0 
302 3 1 2 62 63 -7.097957 1.852614 106.0144 -6.713492 2.341223 106.7238 0 1 16 
303 3 1 2 66 67 5.871634 4.49633 118.9421 6.688726 5.423021 119.7299 0 0 
304 3 1 2 65 66 5.571634 3.685458 113.9315 7.047139 5.215331 114.7807 0 0 
305 3 1 2 66 78 5.81633 3.543983 118.4253 6.80439 4.410997 119.1407 0 0 
306 3 1 2 27 256 1.837364 0.6934399999999998 96.19802 4.261359 3.106134 96.89565 0 0 
307 3 1 2 25 28 1.229782 1.278601 80.29996 4.998873 5.182943 81.27885999999999 0 0 
308 3 1 2 52 56 -8.404180999999999 1.939058 121.5756 -7.427805 2.892122 121.7794 0 0 
309 3 1 2 13 14 4.433261 -0.1004343000000001 54.88824 9.574894 3.215584 57.39842 0 1 1 
310 3 1 2 53 55 3.404102 4.776693 123.8239 3.868569 5.289259 124.3357 0 1 -10 
311 3 1 2 12 39 -9.04349 1.217705 84.88605 -5.175889 5.184089 86.91687 0 0 
312 3 1 2 19 20 1.540586 3.737419 114.8431 3.062139 5.220339 115.5977 0 0 
313 3 1 2 45 46 -8.411718 4.678882 124.3357 -7.914868 5.289259 124.3357 0 0 
314 3 1 2 43 44 -8.659093 3.743135 114.0432 -7.175983 5.231543 114.5014 0 0 
315 3 1 2 41 42 -8.411714999999999 3.474078 123.8095 -7.914511 4.279259 124.3357 0 0 
316 3 1 2 38 43 -8.369732000000001 3.710043 105.8676 -7.219317 4.452971 106.2564 0 1 23 
317 3 1 2 235 250 1.768444 1.123841 124.3357 2.265294 1.734219 124.3357 0 0 
318 3 1 2 34 35 -6.731411 4.591691 118.3599 -5.859854 5.465156 119.0712 0 0 
319 3 1 2 29 30 1.768444 4.678882 124.3357 2.265294 5.289259 124.3357 0 0 
320 3 1 2 40 48 -6.808439 3.668882 124.3357 -6.311593 4.279259 124.3357 0 0 
321 3 1 2 2 12 -8.166192000000001 -4.400987 54.94915 -4.097785 2.114698 57.39842 0 2 -2 17 
322 3 1 2 1 11 -8.166192000000001 2.114698 54.75383 -2.969423 5.037415 57.39842 0 2 12 -28 
323 3 1 2 5 7 -1.395714 -7.805584 19.46398 7.56692 -2.596483 22.61142 0 2 9 18 
324 3 1 2 233 236 1.799594 -3.97407 123.8225 2.265294 -3.668882 124.3357 0 0 
325 3 1 2 4 5 -1.558147 -7.846794 19.11655 1.752955 -5.345002 20.60937 0 2 15 18 
326 3 1 2 253 256 3.157906 1.145076 108.3492 4.613599 2.717919 109.4113 0 0 
327 3 1 2 253 256 2.656554 1.241991 103.5104 4.319622 3.172375 105.4489 0 1 -20 
328 3 1 2 251 252 2.271849 2.128686 126.4523 2.901554 2.750541 126.4523 0 0 
329 3 1 2 251 252 1.768898 1.993624 119.7755 2.768363 2.863076 120.4548 0 0 
330 3 1 2 249 252 1.783986 1.93403 115.9451 3.062144 2.727728 116.3357 0 0 
331 3 1 2 249 252 1.49699 1.147219 112.3344 3.018702 2.667878 113.306 0 0 
332 3 1 2 237 240 2.273604 -5.295131 124.7848 2.844866 -4.693306 124.8863 0 0 
333 3 1 2 237 240 1.773698 -5.411942 118.4208 2.766099 -4.559754 119.2339 0 0 
334 3 1 2 229 231 3.240113 -5.294536 125.9628 3.83702 -4.702913 126.2167 0 0 
335 3 1 2 229 231 3.43098 -5.483424 118.9435 4.325687 -4.484504 119.7801 0 0 
336 3 1 2 227 228 1.811081 -5.248098 106.2564 3.062144 -3.687364 106.7663 0 0 
337 3 1 2 227 228 3.085643 -5.248098 106.2564 4.330002 -3.710043 106.2564 0 0 
338 3 1 2 223 224 7.278639 -2.744219 124.3357 7.908569 -2.133841 124.6908 0 0 
339 3 1 2 223 224 7.914985 -2.744219 124.3357 8.411719 -2.133841 124.3357 0 0 
340 3 1 2 217 218 7.933199 -1.741801 126.1708 8.527412 -1.116437 126.6165 0 0 
341 3 1 2 217 218 7.411719 -1.734219 124.3357 7.908569 -1.123841 124.3357 0 0 
342 3 1 2 215 216 6.31182 -2.750445 126.4523 6.941554 -2.128729 126.4523 0 0 
343 3 1 2 215 216 5.841308 -2.744219 123.806 6.305294 -2.133841 124.3357 0 0 
344 3 1 2 209 212 5.521459 -2.659523 110.4243 6.966171 -1.208755 110.9919 0 0 
345 3 1 2 209 212 7.124662 -2.617219 106.2564 7.507722 -2.036509 106.2564 0 1 -21 
346 3 1 2 69 70 7.126867 3.815567 105.8193 8.108078000000001 5.248098 106.2564 0 1 7 
347 3 1 2 69 70 5.537821 3.75794 108.589 7.081013 5.239078 110.2647 0 0 
348 3 1 2 145 146 -2.26334 -1.737623 125.28 -1.635349 -1.147669 125.7808 0 0 
349 3 1 2 145 146 -2.768443 -1.734219 124.3357 -2.271593 -1.123841 124.3357 0 0 
350 3 1 2 86 87 7.137838 1.1764 107.9559 8.700481 2.711619 109.01 0 0 
351 3 1 2 86 87 5.539581 1.149577 107.2019 7.096536 2.710907 108.0222 0 0 
352 3 1 2 205 206 1.915279 -5.16231 77.55714999999999 5.035841 -1.268722 79.22322 0 0 
353 3 1 2 205 206 2.072093 -6.242267 73.22172 8.263000999999999 -0.1669600999999998 75.43617 0 0 
354 3 1 2 171 172 -7.102005 -5.210735 108.637 -5.516814 -3.747483 109.5616 0 0 
355 3 1 2 171 172 -8.311795999999999 -5.083646 105.2463 -6.822689 -3.318105 106.2564 0 1 14 
356 3 1 2 61 62 -8.279741 0.7318563 101.5937 -5.851846 3.182739 103.3472 0 0 
357 3 1 2 61 62 -8.369446999999999 1.165002 105.5503 -6.713492 3.087824 106.7238 0 1 16 
358 3 1 2 185 186 -6.884677 -1.72691 125.7686 -6.311911 -1.126388 126.2944 0 0 
359 3 1 2 185 186 -6.305287 -1.734219 124.3357 -5.808444 -1.123841 124.6947 0 0 
360 3 1 2 49 50 -8.411718 1.123841 124.3357 -7.914868 1.734219 124.3357 0 0 
361 3 1 2 49 50 -7.908562 1.123135 124.3357 -7.278732 1.715813 125.3005 0 0 
362 3 1 2 175 176 -6.284566 -5.275562 127.0249 -5.675717 -4.669126 127.5997 0 0 
363 3 1 2 175 176 -6.891336 -5.267308 127.0091 -6.312799 -4.716345 127.2656 0 0 
364 3 1 2 109 110 -4.359709 3.513524 119.1804 -3.377361 4.471611 119.8041 0 0 
365 3 1 2 109 110 -4.371715 3.668882 124.3357 -3.874868 4.279259 124.3357 0 0 
366 3 1 2 115 116 -2.752901 4.487998 116.3357 -1.768444 5.272771 116.3357 0 0 
367 3 1 2 115 116 -2.732216 3.524004 116.3357 -1.775388 4.470486 116.9832 0 0 
368 3 1 2 147 148 -2.768433 -2.744219 124.3357 -2.271593 -2.133841 124.3357 0 0 
369 3 1 2 147 148 -2.26518 -2.744219 124.3357 -1.635333 -2.133841 124.703 0 0 
370 3 1 2 131 132 -4.355758 -5.465219 119.2239 -3.374368 -4.491112 119.9489 0 0 
371 3 1 2 131 132 -4.503314 -5.297718 125.2712 -3.90487 -4.684174 125.4024 0 0 
372 3 1 2 122 124 2.271599 -1.716539 125.2552 2.901427 -1.119559 125.8028 0 0 
373 3 1 2 122 124 1.795554 -1.919888 118.1601 2.766439 -0.9408438 119.0761 0 0 
374 3 1 2 23 24 3.874905 3.668882 124.3357 4.371719 4.279259 124.3357 0 0 
375 3 1 2 23 24 3.384399 3.512981 119.0758 4.351645 4.471278 120.4266 0 0 
376 3 1 2 111 112 -2.901129 2.124404 126.4523 -2.271593 2.749304 128.5688 0 0 
377 3 1 2 111 112 -2.265179 2.133841 124.3357 -1.768444 2.744219 124.3357 0 0 
378 3 1 2 73 74 7.318991 4.678882 124.3357 7.908569 5.289259 124.7999 0 0 
379 3 1 2 73 74 7.914879 4.678882 124.3357 8.411719 5.289259 124.3357 0 0 
2 3 1 1 6 -7.999452999999999 -7.965618000000001 0 8 7.959306 14.82159 0 2 -62 298 
3 3 1 1 5 -7.998505 -7.987281000000001 3.123557999999999 7.985826999999999 7.999998 22.61142 0 4 62 127 323 -325 
4 3 1 1 8 -7.999983 -7.846794000000001 10.58208 7.985827 7.999998 27.86319 0 4 -102 -127 -238 -298 
5 3 1 1 7 -5.542017000000001 -7.999993999999999 19.46398 8 7.999998 35.85571 0 5 -107 131 238 241 -323 
6 3 1 1 4 -7.999887000000001 -7.999964 19.11655 1.752955 6.759753999999999 40.44625 0 4 102 107 -135 325 
7 3 1 1 14 0.2977420999999998 -6.374092 52.29491 10.12977 3.215584000000001 64.43657 0 3 -130 199 -309 
8 3 1 1 16 0.06523175999999964 -5.036123 32 10.12977 5.037974999999999 49.12841 0 3 -173 -215 -241 
9 3 1 1 15 0.1220014000000003 -5.031882000000001 44.60294 10.12917 5.038503 57.39842 0 3 -199 215 -280 
12 3 1 1 3 -10.1297 -5.039606 32 -0.05088389999999965 5.023362 47.6182 0 2 -53 135 
13 3 1 1 1 -10.1106 -5.037437 45.11704 -0.05040039000000007 5.037415 57.39842 0 4 53 82 118 322 
14 3 1 1 2 -8.231735 -6.378315 52.26104 -0.05039684000000033 4.571786 64.48688 0 4 71 -82 281 321 
15 3 1 1 11 -8.263871999999999 0.04620759999999979 54.75383 -1.915279 6.381217 70.58002 0 4 193 -237 -281 -322 
16 3 1 1 26 1.915359 0.03291310999999997 68.98105 9.110080999999999 6.381257 82.26414 0 3 -170 219 250 
18 3 1 1 25 1.070745 0.03291310999999997 73.25064999999999 7.604875 6.381257 81.27885999999999 0 2 170 307 
19 3 1 1 205 1.915279 -6.381301 73.22172 8.264882999999999 -0.03185452999999994 79.26927000000001 0 3 69 352 353 
21 3 1 1 10 -8.264882999999999 0.03501349999999981 66.68713 -1.915429 6.381217 79.35896 0 3 -70 144 237 
22 3 1 1 9 -6.083788 0.5583990999999999 73.35633 -1.070081 6.377031 84.97714000000001 0 2 70 297 
23 3 1 1 158 -7.09074 -6.23285 73.97591 -1.070081 -0.6311184000000001 83.80454 0 4 166 167 -172 -208 
24 3 1 1 159 -8.263671 -6.37895 61.19528 -1.915279 -0.03545510000000007 77.55714999999999 0 4 -71 164 -166 -175 
26 3 1 1 157 -9.109956 -5.206536 73.58031 -2.575287 -0.03545510000000007 87.19515 0 4 63 172 174 175 
27 3 1 1 71 5.110081 1.206566 80.82504 9.110080999999999 5.206544 94.48533999999999 0 3 221 -250 296 
29 3 1 1 27 1.070082 0.6741090000000001 84.41471 5.070081 5.738941 96.89565 0 3 55 270 306 
30 3 1 1 208 5.110433 -5.205518 77.55714999999999 9.110080999999999 -1.207353 92.05741999999999 0 2 -69 -79 
31 3 1 1 202 5.110082 -5.738907 88.75248999999999 9.110080999999999 -0.6741088 98.95237 0 3 78 79 -187 
32 3 1 1 207 1.070085 -5.206548 84.95834000000001 5.070081 -0.6741136999999999 99.21465999999999 0 3 60 61 -64 
33 3 1 1 120 -5.070081 0.6741231000000001 82.9517 -1.070081 5.205898 97.84632999999999 0 3 -148 -256 -297 
34 3 1 1 119 -5.070081 2.948254 91.84247999999999 -1.070081 5.738977 104.4392 0 2 148 -222 
35 3 1 1 39 -9.11008 0.6741112 84.88605 -5.110081 5.738945 97.87202000000001 0 3 86 -134 -311 
36 3 1 1 136 -5.070079 -5.205105 81.95572 -1.070081 -0.6741103000000002 97.33831000000001 0 3 207 208 -209 
37 3 1 1 135 -5.070079 -5.738911 91.93732 -1.070081 -2.944305 105.3467 0 2 -122 209 
38 3 1 1 170 -9.110078 -5.206549 84.69342 -5.110081 -0.6741171000000001 101.2826 0 3 -63 145 -147 
39 3 1 1 169 -8.36683 -5.738989 91.9318 -5.110081 -3.093145 106.2564 0 3 99 146 147 
40 3 1 1 69 5.515923 3.219277 104.2234 8.108078000000001 5.738743 110.2647 0 3 163 346 347 
41 3 1 1 72 5.850806 3.21915 93.55714999999999 8.370001999999999 5.738979 106.2564 0 3 -163 -277 -296 
43 3 1 1 85 5.852733 0.6750815000000001 99.18312 8.370001999999999 3.193898 106.2564 0 2 74 165 
44 3 1 1 86 5.515964 1.140333 105.2692 8.705418999999999 3.086114 109.01 0 3 -74 350 351 
46 3 1 1 22 1.810524 3.219204 102.1451 4.330002 5.738754 107.0687 0 3 -156 -239 283 
48 3 1 1 254 1.475204 0.6744481 104.0739 4.222851 3.193936 107.9903 0 3 2 -4 -5 
49 3 1 1 253 2.656554 1.145076 103.5104 4.665419 3.185414 109.4113 0 3 4 326 327 
50 3 1 1 210 5.850705 -3.185161 96.16146999999999 8.370001999999999 -0.6744082999999998 106.2564 0 3 50 -52 -78 
51 3 1 1 209 5.515028 -3.193879 104.31 8.108078000000001 -0.7317020999999999 110.9919 0 3 52 344 345 
52 3 1 1 201 5.85069 -5.738348 97.5348 8.705418999999999 -3.23264 107.0722 0 3 81 -95 187 
53 3 1 1 204 5.514753 -5.272385 105.3302 8.108078000000001 -3.21929 112.9119 0 2 -77 -81 
54 3 1 1 245 1.81025 -3.193941 97.69235 4.330002 -0.6741089 106.2564 0 3 11 12 -60 
55 3 1 1 246 1.474761 -2.770687 105.0061 3.80717 -0.6741089 110.272 0 3 10 -11 -231 
58 3 1 1 227 1.811081 -5.738985 101.7449 4.330002 -3.219227 106.7663 0 3 -33 336 337 
59 3 1 1 117 -4.665347 3.219244 103.6036 -1.811387 5.738753 108.3036 0 3 132 222 -230 
61 3 1 1 102 -3.061873 1.148187 104.5587 -1.474743 3.097112 109.7352 0 2 -73 258 
62 3 1 1 101 -4.32979 0.6742918 101.5256 -1.81844 3.19388 106.7032 0 3 73 75 225 
64 3 1 1 37 -8.369732000000001 3.688334 104.0985 -5.514743 5.738449 111.9087 0 3 54 259 -276 
65 3 1 1 38 -8.369732000000001 3.219152 94.35005 -5.85119 5.732982 106.2564 0 3 -54 134 316 
66 3 1 1 43 -8.70528 3.68537 105.8676 -7.118018 5.270195 114.5014 0 3 -259 314 -316 
68 3 1 1 61 -8.369446999999999 0.6741147000000001 101.5937 -5.85016 3.193907 107.0844 0 3 279 356 357 
70 3 1 1 150 -4.665261 -3.193887 103.5484 -2.451096 -0.7316975000000001 109.8741 0 3 -80 184 186 
72 3 1 1 149 -3.832087 -3.147993 104.5266 -1.474743 -0.67411 109.8564 0 3 80 188 189 
73 3 1 1 134 -4.329053 -5.73899 103.8829 -1.474743 -3.219271 109.3035 0 3 122 210 -214 
74 3 1 1 177 -8.367808 -3.193892 99.33247 -5.85098 -0.6744282000000001 106.2564 0 3 100 133 -145 
75 3 1 1 179 -7.24322 -3.091339 105.4734 -5.514743 -1.144005 112.4099 0 3 126 -129 -133 
76 3 1 1 178 -8.703709 -3.089601 105.2913 -6.7754 -1.116894 113.4005 0 3 -100 129 185 
77 3 1 1 171 -8.36683 -5.512067 103.7343 -5.514743 -3.219154 109.5616 0 3 -99 354 355 
79 3 1 1 75 7.118021 3.474078 112.8498 8.705418999999999 5.272771 120.4455 0 3 244 -273 291 
80 3 1 1 66 5.51475 3.474071 113.9315 7.102144 5.484065 119.7299 0 3 303 -304 305 
82 3 1 1 92 7.118022 0.9290357999999999 115.5498 8.705418999999999 2.939027 122.1912 0 3 -183 268 -271 
84 3 1 1 82 5.514768 0.9290315 114.7715 7.102144 2.93903 121.7162 0 3 284 285 -286 
85 3 1 1 21 3.079774 3.685436 106.2564 4.665419 5.272724 114.7933 0 2 158 239 
87 3 1 1 19 1.474906 3.685491 106.2564 3.062139 5.272714 115.5977 0 2 156 312 
88 3 1 1 20 1.474747 3.474072 114.8431 3.062144 5.484068 121.0418 0 3 111 -154 -312 
89 3 1 1 255 3.078022 0.92903 112.4647 4.665419 2.939029 119.1091 0 3 1 -105 -110 
90 3 1 1 249 1.474743 0.9290301 112.3344 3.062144 2.727728 120.3587 0 3 7 330 331 
92 3 1 1 219 7.118019 -2.939021 111.0866 8.705418999999999 -1.140329 118.2866 0 3 38 39 -46 
94 3 1 1 211 5.514744 -2.93903 113.9846 7.102144 -0.9290314 119.9092 0 3 47 48 49 
95 3 1 1 194 7.118019 -5.27277 106.8197 8.705363 -3.685387 115.6258 0 2 95 -101 
96 3 1 1 193 7.118019 -5.484069 114.8701 8.705418999999999 -3.474076 121.1046 0 3 97 101 260 
97 3 1 1 203 5.514744 -5.484066 112.4411 7.102144 -3.68537 120.3527 0 3 76 77 -89 
98 3 1 1 241 3.078021 -2.72773 110.3365 4.665419 -0.9290305 119.1361 0 3 16 17 18 
99 3 1 1 123 1.474745 -2.939027 109.6717 3.062144 -1.140332 117.636 0 3 87 137 231 
100 3 1 1 232 3.078026 -5.27277 109.9938 4.665419 -3.474071 117.7871 0 3 -26 -30 -32 
102 3 1 1 239 1.474761 -5.484069 109.9822 3.062144 -3.685371 117.6795 0 3 19 -24 -29 
103 3 1 1 115 -3.062134 3.474072 109.4532 -1.474743 5.272771 116.9832 0 3 168 366 367 
106 3 1 1 107 -3.06214 0.9290308 113.2866 -1.474743 2.939027 119.0685 0 3 124 -251 -255 
107 3 1 1 98 -4.665419 1.140329 112.2189 -3.078018 2.939029 120.5344 0 3 -65 261 262 
109 3 1 1 35 -7.102137 3.68537 110.5876 -5.514743 5.484066 119.0712 0 3 98 276 -318 
110 3 1 1 44 -8.705415 3.474076 114.0432 -7.118018 5.484069 120.4771 0 3 -212 301 -314 
111 3 1 1 60 -7.10214 0.9290313000000001 114.8335 -5.514743 2.93903 122.267 0 3 -66 -68 -139 
114 3 1 1 52 -8.705418999999999 1.140329 114.7245 -7.118018 2.939025 121.7794 0 3 -252 295 308 
115 3 1 1 151 -3.062141 -2.939027 108.8587 -1.474743 -1.1405 118.5004 0 3 182 -188 -195 
116 3 1 1 154 -4.665418 -2.727275 109.1206 -3.078018 -0.92903 118.8046 0 3 -180 -184 287 
117 3 1 1 153 -4.37083 -2.939029 114.8176 -3.078018 -1.595864 123.6029 0 2 176 180 
118 3 1 1 144 -3.062133 -5.272757 108.541 -1.474743 -3.685371 116.3357 0 3 -140 -201 -210 
119 3 1 1 133 -4.665389 -5.272752 106.2564 -3.078018 -3.68537 115.5897 0 2 214 -223 
120 3 1 1 130 -4.665419 -5.484067 114.8111 -3.078018 -3.474071 122.2537 0 3 220 223 -224 
121 3 1 1 180 -7.102141 -2.72773 111.0301 -5.514743 -0.9290314 119.8661 0 3 123 125 -126 
122 3 1 1 182 -8.705417000000001 -2.939021 112.7519 -7.118018 -1.140337 121.6341 0 3 -83 121 -185 
124 3 1 1 174 -7.102134 -5.27277 114.0668 -5.514743 -3.474071 122.2598 0 3 -142 -143 -149 
125 3 1 1 173 -6.808443 -5.484065 115.958 -5.808444 -4.484149 124.3357 0 2 141 142 
126 3 1 1 163 -8.705418999999999 -5.272768 109.8787 -7.118018 -3.474079 118.3508 0 3 84 159 -162 
127 3 1 1 164 -8.638894000000001 -5.48407 115.4925 -7.118018 -4.318902 123.3349 0 2 -84 155 
128 3 1 1 73 7.278609 4.484078 118.223 8.411719 5.484067 124.7999 0 3 294 378 379 
130 3 1 1 77 7.278622 3.474078 119.5388 8.411719 4.474062 130.6853 0 2 192 -244 
131 3 1 1 67 5.808447 4.484071 118.9421 6.941554 5.48407 125.7518 0 3 -120 227 -303 
132 3 1 1 68 5.675337 4.669351 123.818 6.308642 5.48407 130.6853 0 1 -227 
133 3 1 1 79 5.67534 3.474071 120.1047 6.941554 4.47407 130.6853 0 2 288 -289 
135 3 1 1 96 7.278641 1.939039 121.5058 8.544829 2.939022 130.6853 0 1 -268 
136 3 1 1 91 7.411719 0.929038 117.5931 8.411187999999999 1.929021 124.3357 0 3 -181 271 -272 
137 3 1 1 89 7.906417 1.11424 123.8105 8.544829 1.743819 130.6853 0 1 181 
138 3 1 1 81 5.675361 1.939032 121.0666 6.941554 2.939028 130.6853 0 1 286 
139 3 1 1 84 5.675335 0.9290316 118.2109 6.808416 1.929006 130.6853 0 2 -246 -284 
140 3 1 1 83 5.912388 0.9290316 123.7881 6.941554 1.929028 130.6853 0 1 246 
141 3 1 1 54 3.37183 4.484073 116.3357 4.371719 5.484067 124.3357 0 3 269 -275 -300 
142 3 1 1 53 3.238609 4.671399 123.8239 3.868569 5.29518 130.6853 0 2 300 310 
143 3 1 1 55 3.404102 4.669255 123.3202 4.504829 5.48407 130.6853 0 2 -269 -310 
144 3 1 1 23 3.238622 3.474071 119.0758 4.371719 4.474069 130.6853 0 2 374 375 
145 3 1 1 29 1.768444 4.484074 118.6967 2.901554 5.48407 125.3385 0 3 -111 169 319 
146 3 1 1 17 1.635342 3.474075 120.2692 2.768261 4.474066 126.3142 0 3 154 248 267 
147 3 1 1 18 2.26646 3.659719 123.8066 2.901554 4.474066 130.6853 0 1 -248 
148 3 1 1 191 3.238641 1.939035 118.3521 4.371719 2.939025 126.4523 0 3 104 105 -113 
149 3 1 1 188 3.23861 0.9290336 117.923 4.371719 1.929027 126.4523 0 3 110 -112 -179 
150 3 1 1 251 1.635365 1.939037 119.7755 2.901554 2.939025 130.6853 0 2 328 329 
151 3 1 1 250 1.768444 0.9290362 119.2038 2.901554 1.929023 126.3064 0 3 -7 -9 -317 
152 3 1 1 217 7.411719 -1.929023 120.5404 8.544829 -0.9290403 126.6165 0 3 42 340 341 
154 3 1 1 223 7.278639 -2.939023 117.6194 8.411719 -1.93904 124.6908 0 3 -38 338 339 
155 3 1 1 213 5.675337 -1.92903 119.6278 6.941554 -0.9290309 130.6853 0 2 45 -48 
156 3 1 1 215 5.808744 -2.939028 117.6439 6.941554 -1.93903 126.4523 0 3 -47 342 343 
159 3 1 1 196 7.278623 -4.474063 120.9401 8.544829 -3.474078 130.6853 0 2 -93 -94 
160 3 1 1 198 7.411719 -5.484068 120.2943 8.544829 -4.484072 125.9758 0 3 91 -92 -97 
161 3 1 1 197 7.278609 -5.298561 124.1529 7.908569 -4.671123 130.6853 0 1 92 
163 3 1 1 200 5.675343 -4.47407 119.027 6.808444 -3.474072 130.6853 0 2 85 -88 
165 3 1 1 221 5.675335 -5.48407 119.6457 6.808102 -4.484071 126.6739 0 3 36 37 -76 
166 3 1 1 222 6.307828 -5.298931 123.8116 6.941554 -4.484071 130.6853 0 1 -37 
167 3 1 1 242 3.238611 -1.929025 118.6256 4.371719 -0.929034 130.6853 0 2 15 -16 
168 3 1 1 243 3.238639 -2.939026 121.6326 4.504829 -1.939035 130.6853 0 1 14 
170 3 1 1 122 1.768508 -1.929024 118.1601 2.901554 -0.9290319 125.8028 0 3 -235 372 373 
172 3 1 1 121 1.635337 -1.929024 123.823 2.664499 -0.9290345 130.6853 0 1 235 
173 3 1 1 127 1.63536 -2.939025 121.5509 2.901554 -1.939036 130.6853 0 1 226 
175 3 1 1 225 3.238623 -4.474068 121.1128 4.504829 -3.474072 130.6853 0 1 34 
176 3 1 1 229 3.238609 -5.484057 118.9435 4.3717 -4.484073 126.2167 0 3 28 334 335 
178 3 1 1 230 3.475663 -5.48407 123.5572 4.504829 -4.484073 130.6853 0 1 -28 
179 3 1 1 233 1.768688 -4.47406 116.3357 2.768444 -3.474072 124.3357 0 3 24 25 324 
181 3 1 1 236 1.635336 -4.288383 123.8225 2.265294 -3.65909 130.6853 0 2 -22 -324 
182 3 1 1 237 1.768444 -5.484069 118.4208 2.901554 -4.484074 124.8863 0 3 21 332 333 
184 3 1 1 126 -2.901553 4.484074 121.0624 -1.768444 5.484069 127.1727 0 3 103 -204 -228 
185 3 1 1 125 -2.473284 4.634669 123.3473 -1.635333 5.484069 130.6853 0 1 228 
187 3 1 1 114 -2.84165 3.474075 121.2199 -1.635333 4.47407 127.3396 0 3 242 243 -245 
188 3 1 1 94 -4.371718 4.484073 116.6484 -3.371816 5.48407 124.3357 0 3 -240 265 266 
189 3 1 1 95 -4.504826 4.66917 124.0454 -3.874868 5.299015 130.6853 0 1 -266 
190 3 1 1 93 -3.86856 4.670279 123.8306 -3.238608 5.299023 130.6853 0 1 240 
191 3 1 1 109 -4.371715 3.474074 119.1804 -3.238608 4.474068 130.6853 0 2 364 365 
192 3 1 1 111 -2.90152 1.93903 118.7018 -1.768444 2.939025 128.5688 0 3 -124 376 377 
193 3 1 1 106 -2.768435 0.9290344 117.8919 -1.768444 1.929024 124.3357 0 3 -234 254 255 
194 3 1 1 105 -2.266008 1.1155 123.8176 -1.635333 1.929024 130.6853 0 1 234 
195 3 1 1 108 -2.901552 1.114759 123.8161 -2.271593 1.743634 130.6853 0 1 -254 
196 3 1 1 97 -4.504799 1.939036 119.7386 -3.238608 2.939025 130.6853 0 2 65 264 
197 3 1 1 99 -4.504827 0.9290351999999999 122.7653 -3.238608 1.929024 130.6853 0 2 90 190 
199 3 1 1 34 -6.808443 4.484071 118.3599 -5.675333 5.48407 125.9311 0 3 -171 290 318 
200 3 1 1 33 -6.941552 4.484071 124.0782 -6.243666 5.48407 130.6853 0 1 171 
201 3 1 1 40 -6.808439 3.47407 119.4 -5.675333 4.47407 130.6853 0 2 -278 320 
203 3 1 1 46 -8.411718 4.484074 117.5793 -7.411721 5.484068 124.3357 0 3 138 263 -313 
204 3 1 1 47 -7.919354 4.484077 123.8358 -7.278608 5.484068 130.6853 0 1 -263 
206 3 1 1 42 -8.411714999999999 3.474078 120.2692 -7.278608 4.474063 130.6853 0 2 212 -315 
207 3 1 1 41 -8.544819 3.474078 123.8095 -7.914511 4.289047 130.6853 0 1 315 
208 3 1 1 57 -6.941521 1.939031 120.9527 -5.675333 2.939028 130.6853 0 1 213 
209 3 1 1 59 -6.941551 0.9290308 121.6043 -5.675333 1.929028 130.6853 0 2 139 253 
210 3 1 1 56 -8.544797000000001 1.93904 121.5756 -7.278608 2.93903 130.6853 0 1 -308 
211 3 1 1 49 -8.411718 0.9290406 118.3805 -7.278608 1.92902 125.3005 0 3 217 360 361 
213 3 1 1 145 -2.768443 -1.929024 118.5749 -1.635333 -0.9290299 125.7808 0 3 197 348 349 
214 3 1 1 147 -2.768433 -2.939029 118.1199 -1.635333 -1.939036 124.703 0 3 195 368 369 
215 3 1 1 155 -4.371718 -1.929025 118.3061 -3.371719 -0.9290305 124.3357 0 3 177 178 -287 
217 3 1 1 137 -2.768439 -4.47407 118.1035 -1.635333 -3.474071 125.7666 0 3 72 203 206 
219 3 1 1 138 -2.901539 -4.474067 123.8289 -1.872388 -3.659097 130.6853 0 1 -72 
220 3 1 1 142 -2.768443 -5.48407 118.9895 -1.635333 -4.484074 125.5241 0 3 -198 200 -202 
222 3 1 1 141 -2.901553 -5.293577 123.8058 -2.248753 -4.484074 130.6853 0 1 198 
223 3 1 1 129 -4.504819 -4.474067 121.2036 -3.238608 -3.474074 130.6853 0 1 224 
224 3 1 1 131 -4.504827 -5.48407 119.2239 -3.372093 -4.484073 125.4024 0 3 216 370 371 
226 3 1 1 139 -3.868561 -5.298732 123.8161 -3.238608 -4.67369 130.6853 0 1 -216 
227 3 1 1 185 -6.941551 -1.929028 119.0783 -5.808444 -0.9290315 126.2944 0 3 -123 358 359 
228 3 1 1 184 -6.941523 -2.939028 121.0417 -5.675333 -1.939032 130.6853 0 1 -119 
229 3 1 1 189 -8.544824999999999 -1.92903 118.1443 -7.411753 -0.9290382 125.3165 0 3 59 108 -117 
230 3 1 1 190 -7.908568 -1.743102 123.8292 -7.278608 -1.114064 130.6853 0 1 -59 
231 3 1 1 181 -8.544803 -2.939022 120.9709 -7.278608 -1.939039 130.6853 0 1 83 
232 3 1 1 168 -6.94154 -4.47407 121.6529 -5.675333 -3.474072 127.1524 0 3 149 -150 -205 
233 3 1 1 175 -6.941553 -5.48407 123.2481 -5.675333 -4.484071 127.5997 0 3 -141 362 363 
234 3 1 1 162 -8.411714999999999 -4.474062 119.19 -7.278608 -3.474078 130.6853 0 2 -160 -161 
236 3 1 1 166 -8.544827 -5.484067 122.7409 -7.411783 -4.484072 128.696 0 3 151 -153 -155 
237 3 1 1 165 -7.908562 -5.298388 123.8148 -7.278608 -4.678358 130.6853 0 1 153 
239 3 1 1 80 6.311633 3.659326 124.3357 6.941554 4.285125 130.6853 0 1 -288 
240 3 1 1 90 7.278611 1.11518 124.3357 7.908569 1.743743 130.6853 0 1 272 
242 3 1 1 30 1.635337 4.669492 124.3357 2.265294 5.298934 130.6853 0 1 -319 
249 3 1 1 234 2.271594 -4.287027 124.3357 2.901554 -3.659135 130.6853 0 1 23 
250 3 1 1 238 1.635334 -5.298347 124.3357 2.265294 -4.671281 130.6853 0 1 -21 
251 3 1 1 113 -2.90154 3.660279 124.3357 -2.271593 4.288462 130.6853 0 1 245 
252 3 1 1 45 -8.544826 4.669254 124.3357 -7.914868 5.297882 130.6853 0 1 313 
258 3 1 1 12 0.07455575999999997 -5.039623 32 7.926576 -0.1382984 37.70329 0 2 -131 173 
259 3 1 1 12 -10.10274 -4.400986999999999 53.76262 -4.097785 3.991987 57.39842 0 3 -118 -193 -321 
260 3 1 1 12 -9.098182 1.208047 77.55714999999999 -5.111682 5.200475 86.91687 0 2 -144 311 
261 3 1 1 13 1.915283 -0.1004342999999999 54.88824 9.574894 6.380384 63.14964 0 3 109 280 309 
262 3 1 1 13 1.916516 -6.375686 60.9317 8.236094 -0.0669417499999998 69.86626 0 2 96 130 
263 3 1 1 28 1.919532 0.03762448999999979 60.15013 8.216994 6.380629 73.29854 0 2 -109 -219 
264 3 1 1 28 1.076137 1.24625 80.29996 5.06739 5.201864 86.88225 0 2 -270 -307 
265 3 1 1 206 1.915279 -6.379219 68.62639 8.263000999999999 -0.03197883999999984 75.43617 0 1 -96 
266 3 1 1 206 1.072288 -5.204612 77.55714999999999 5.069063 -1.208634 87.46578 0 3 64 -352 -353 
267 3 1 1 160 -8.264821 -6.375166 73.59853 -3.270128 -2.463593 77.55714999999999 0 3 -164 -167 -174 
268 3 1 1 160 -4.504825 -1.742923 124.3357 -3.874868 -1.114453 130.6853 0 1 -178 
269 3 1 1 88 5.869071 0.6741346000000001 92.00986 9.110080999999999 3.307087 100.2022 0 2 -165 -221 
270 3 1 1 88 7.118068 1.140369 110.6123 8.705088999999999 2.72773 116.3357 0 2 183 -236 
271 3 1 1 70 7.118324 3.685374 105.8193 8.705418999999999 5.272771 113.2918 0 4 273 277 -346 -347 
272 3 1 1 70 5.515265 3.705206 108.589 7.081013 5.242536 112.2705 0 1 -299 
273 3 1 1 32 1.811173 3.21964 94.84784000000001 4.329903 5.738041 103.2978 0 2 -55 -283 
274 3 1 1 32 2.271601 4.669232 125.2312 2.901539 5.293039 128.0741 0 2 -169 -274 
275 3 1 1 256 1.810593 0.6760605 96.19802 4.328163 3.193951 105.4489 0 2 -2 -306 
276 3 1 1 256 3.078083 1.144054 108.3492 4.665377 2.727568 113.3852 0 3 -1 -326 -327 
277 3 1 1 247 3.078972 -2.726906 105.7243 4.665419 -1.140786 110.9169 0 3 -10 -12 -18 
278 3 1 1 247 2.274696 1.115268 126.2423 2.901447 1.735888 127.6618 0 2 9 229 
279 3 1 1 226 1.810227 -5.738987 93.55714999999999 4.330002 -3.223253 102.5921 0 2 33 -61 
280 3 1 1 226 3.375135 -4.473865 117.6004 4.370674 -3.474167 121.7586 0 2 32 -34 
281 3 1 1 118 -3.088227 3.219244 105.2536 -1.474743 5.266845 110.4853 0 2 -132 -168 
282 3 1 1 118 -2.265247 3.661217 127.053 -1.635333 4.288975 130.6853 0 1 -242 
283 3 1 1 104 -4.31157 0.6760067000000001 96.52661999999999 -1.810502 3.193936 104.2136 0 2 -225 256 
284 3 1 1 104 -3.062144 1.14056 109.3504 -1.474757 2.726513 114.0173 0 2 251 -258 
285 3 1 1 104 -4.504585 1.116426 126.7814 -3.874934 1.740017 129.3155 0 2 -90 -257 
286 3 1 1 62 -8.704504999999999 1.142963 105.5503 -6.713492 3.087824 109.4292 0 2 211 302 
287 3 1 1 62 -8.369223 0.6813955999999999 96.24796000000001 -5.851846 3.182739 103.3472 0 3 -86 -356 -357 
288 3 1 1 63 -7.099537 1.150373 105.8954 -5.514743 2.727075 111.4412 0 3 -279 -282 -302 
289 3 1 1 63 -6.941488 1.115399 126.3413 -6.315184 1.737312 128.3253 0 2 191 -253 
290 3 1 1 152 -4.329893 -3.180933 96.17631 -1.810255 -0.67411 105.4769 0 3 -186 -189 -207 
291 3 1 1 152 -2.766844 -1.937706 114.8565 -1.474743 -0.92903 119.327 0 2 -182 -197 
292 3 1 1 172 -8.705253000000001 -5.253789 105.2463 -6.822689 -3.318105 110.4798 0 2 -146 -159 
293 3 1 1 172 -7.102124 -5.27277 108.637 -5.51525 -3.68537 114.867 0 3 143 -354 -355 
294 3 1 1 65 5.515265 3.685458 110.9663 7.101629 5.271913 114.7807 0 2 299 304 
295 3 1 1 65 6.311631 4.670427 125.6642 6.941554 5.299045 130.6853 0 1 120 
296 3 1 1 87 7.137838 1.141811 107.9559 8.700481 2.724585 111.4977 0 3 236 -350 -351 
297 3 1 1 87 5.514978 1.140336 107.2019 7.102137 2.727721 115.5825 0 1 -285 
298 3 1 1 24 3.078028 3.474071 113.9917 4.665419 5.27277 120.4266 0 2 -158 275 
299 3 1 1 24 3.874905 3.659474 124.3357 4.504829 4.289039 130.6853 0 2 -374 -375 
300 3 1 1 252 1.480155 1.145565 107.0456 3.056685 2.727712 113.306 0 1 5 
301 3 1 1 252 1.768898 1.93403 115.9451 3.062144 2.939027 120.4548 0 2 -330 -331 
302 3 1 1 252 2.271849 2.124087 126.4523 2.901554 2.753661 130.6853 0 2 -328 -329 
303 3 1 1 212 7.124309 -2.726452 106.2564 8.705418999999999 -1.146062 111.7042 0 2 46 -50 
304 3 1 1 212 5.517801 -2.723365 110.4243 7.102038 -1.142228 114.1299 0 3 -49 -344 -345 
305 3 1 1 228 3.082419 -5.272424 106.2564 4.665419 -3.685371 110.7953 0 1 30 
306 3 1 1 228 1.47583 -5.254401 106.2564 3.062144 -3.687364 110.81 0 3 29 -336 -337 
307 3 1 1 112 -4.665416 3.686188 107.6497 -3.07802 5.272715 114.8567 0 2 -116 230 
308 3 1 1 112 -2.265179 2.124053 124.3357 -1.635333 2.753739 130.6853 0 0 
309 3 1 1 112 -2.901129 2.124404 126.4523 -2.271593 2.753952 130.6853 0 2 -376 -377 
310 3 1 1 110 -4.665417 3.474071 113.9399 -3.078018 5.484068 119.8041 0 4 116 -265 -364 -365 
311 3 1 1 110 -4.504821 3.659093 124.3357 -3.874868 4.288687 130.6853 0 0 
312 3 1 1 103 -4.665299 1.140382 106.2564 -3.078222 2.726961 113.2714 0 2 -75 -262 
313 3 1 1 103 -4.504737 1.125851 129.0569 -3.874868 1.734363 130.6853 0 1 257 
314 3 1 1 58 -7.102042 1.140337 110.3842 -5.514743 2.727728 115.5962 0 2 68 282 
315 3 1 1 58 -6.808443 1.939117 116.3357 -5.809817 2.938987 121.6408 0 2 66 -213 
316 3 1 1 64 -8.705418999999999 1.140449 108.7122 -7.118373 2.72769 115.1739 0 2 -211 -295 
317 3 1 1 64 -6.941553 1.126992 128.0529 -6.311593 1.72995 130.6853 0 1 -191 
318 3 1 1 183 -8.705417000000001 -2.562728 115.4675 -7.118018 -0.9290363 118.6903 0 2 117 -121 
319 3 1 1 183 -6.808298 -2.93903 116.3357 -5.808444 -1.939085 121.6404 0 2 119 -125 
320 3 1 1 76 7.41518 4.484281 116.3357 8.411719 5.48407 118.7441 0 2 -291 -294 
321 3 1 1 76 7.278608 4.673719 125.2075 7.908569 5.298944 130.6853 0 1 -292 
322 3 1 1 78 5.813487 3.474657 118.4253 6.80439 4.473898 120.5822 0 2 289 -305 
323 3 1 1 78 7.914915 3.660764 124.3357 8.544829 4.288964 130.6853 0 1 -192 
324 3 1 1 220 7.412248 -1.929006 116.3357 8.411719 -0.9290322 121.1638 0 2 -39 -42 
325 3 1 1 220 7.278668 -1.742922 127.1099 7.908569 -1.118246 130.6853 0 1 -40 
326 3 1 1 216 5.675356 -2.754009 123.806 6.305294 -2.124319 130.6853 0 0 
327 3 1 1 216 6.31182 -2.753644 126.4523 6.941554 -2.124099 130.6853 0 2 -342 -343 
328 3 1 1 216 6.311853 -4.288561 126.2178 6.941554 -3.660811 130.6853 0 1 -44 
329 3 1 1 195 7.415162 -4.47407 118.1402 8.411621999999999 -3.474192 121.1606 0 2 94 -260 
330 3 1 1 195 7.914869 -4.289048 125.2315 8.544829 -3.65968 130.6853 0 1 93 
331 3 1 1 199 5.812149 -4.473911 116.3357 6.808444 -3.474071 119.8617 0 2 88 89 
332 3 1 1 199 7.91487 -5.29874 125.7276 8.544829 -4.678183 130.6853 0 1 -91 
333 3 1 1 214 6.311594 -4.288561 124.0486 6.941554 -3.660811 126.2901 0 2 44 -85 
334 3 1 1 214 6.311597 -1.743224 124.8156 6.941554 -1.114225 130.6853 0 1 -45 
335 3 1 1 244 3.371882 -2.939029 116.3357 4.371719 -1.939136 122.2337 0 2 -14 -17 
336 3 1 1 244 3.874876 -1.743688 124.3357 4.504829 -1.114988 127.2346 0 2 13 -15 
337 3 1 1 124 1.771621 -1.927161 116.3357 2.768444 -0.9290310000000001 119.0761 0 1 -137 
338 3 1 1 124 2.271599 -1.74312 125.2552 2.901554 -1.114058 130.6853 0 2 -372 -373 
339 3 1 1 128 1.769525 -2.937011 117.289 2.760475 -1.939112 122.0258 0 2 -87 -226 
340 3 1 1 128 -2.901545 4.669453 126.6799 -2.271593 5.298587 130.6853 0 1 -103 
341 3 1 1 231 3.381158 -5.484068 116.3357 4.371719 -4.484504 119.7801 0 1 26 
342 3 1 1 231 3.238644 -5.294536 125.9628 3.868569 -4.669183 130.6853 0 2 -334 -335 
343 3 1 1 235 1.799594 -4.474066 123.3792 2.901554 -3.668882 124.8621 0 3 22 -23 -25 
344 3 1 1 235 1.635335 1.114302 124.3357 2.265294 1.744001 130.6853 0 1 317 
345 3 1 1 240 1.773698 -5.477126 116.9899 2.766099 -4.494494 119.2339 0 1 -19 
346 3 1 1 240 2.271611 -5.298279 124.7848 2.901554 -4.678524 130.6853 0 2 -332 -333 
347 3 1 1 116 -2.766978 4.484266 116.3357 -1.768444 5.48407 121.395 0 3 204 -366 -367 
348 3 1 1 116 -2.768308 3.474423 116.3357 -1.772982 4.473756 121.7616 0 1 -243 
349 3 1 1 100 -4.371325 0.9290303 116.3357 -3.371719 1.928938 122.8175 0 2 -190 -261 
350 3 1 1 100 -4.504683 2.124377 124.3357 -3.874868 2.753996 130.6853 0 1 -264 
351 3 1 1 36 -6.793219 3.474071 116.3357 -5.808444 4.474065 119.906 0 2 -98 278 
352 3 1 1 36 -6.305292 4.670322 125.6895 -5.675333 5.298117 130.6853 0 1 -290 
353 3 1 1 48 -8.396176000000001 4.485052 116.3357 -7.413152 5.484069 118.2794 0 2 -138 -301 
354 3 1 1 48 -6.941541 3.660534 124.3357 -6.311593 4.283553 130.6853 0 1 -320 
355 3 1 1 51 -8.398477 0.9290325 116.3357 -7.411719 1.925569 119.1052 0 2 -217 252 
356 3 1 1 51 -8.544821000000001 1.114345 125.3139 -7.914868 1.743287 130.6853 0 1 -247 
357 3 1 1 156 -3.86856 -1.744006 124.0673 -3.238608 -1.114184 130.6853 0 1 -177 
358 3 1 1 156 -4.504804 -2.939025 122.7206 -3.238608 -1.939035 130.6853 0 1 -176 
359 3 1 1 143 -2.76498 -4.47367 116.3357 -1.768444 -3.474072 118.5311 0 2 140 -206 
360 3 1 1 143 -2.265293 -5.298403 125.277 -1.635333 -4.670479 130.6853 0 1 -200 
361 3 1 1 140 -2.763211 -5.484068 116.3357 -1.768444 -4.485864 119.5301 0 2 201 202 
362 3 1 1 140 -2.265281 -4.288988 125.3846 -1.635333 -3.659776 130.6853 0 1 -203 
363 3 1 1 132 -4.361711 -5.47512 116.9782 -3.374368 -4.490776 119.9489 0 3 -220 -370 -371 
364 3 1 1 132 -4.504826 -5.297718 125.2712 -3.874868 -4.670175 130.6853 0 0 
365 3 1 1 161 -8.405256 -4.470675 117.6384 -7.413555 -3.491256 119.8276 0 2 161 162 
366 3 1 1 161 -8.544828000000001 -4.286963 124.3357 -7.914868 -3.659534 130.6853 0 1 160 
367 3 1 1 74 7.914879 4.670361 124.3357 8.544829 5.2977 130.6853 0 0 
368 3 1 1 74 7.280097 4.674894 124.3357 7.908569 5.292919 125.7541 0 3 292 -378 -379 
369 3 1 1 31 2.271595 4.6835 128.0625 2.901554 5.286122 130.6853 0 1 274 
370 3 1 1 31 1.635437 3.659427 126.1977 2.265294 4.285199 130.6853 0 1 -267 
371 3 1 1 186 3.874974 2.124053 124.3357 4.504829 2.753666 130.6853 0 1 113 
372 3 1 1 186 -6.305287 -1.743913 124.3357 -5.675333 -1.114354 130.6853 0 0 
373 3 1 1 186 -6.941545 -1.743257 125.7686 -6.311593 -1.117611 130.6853 0 2 -358 -359 
374 3 1 1 192 3.238762 2.124383 124.3357 3.868569 2.753944 130.6853 0 1 -104 
375 3 1 1 192 -8.544679 -1.743996 124.8129 -7.914868 -1.114732 130.6853 0 1 -108 
376 3 1 1 187 3.874876 1.114116 124.3357 4.504829 1.74167 130.6853 0 1 179 
377 3 1 1 187 3.238625 1.114055 124.3357 3.868569 1.743888 130.6853 0 1 112 
378 3 1 1 248 2.271613 1.120794 127.478 2.901554 1.734369 130.6853 0 1 -229 
379 3 1 1 248 3.874871 -1.743688 127.1469 4.504829 -1.117945 130.6853 0 1 -13 
380 3 1 1 218 7.914873 -1.742021 126.1708 8.544829 -1.116437 130.6853 0 2 -340 -341 
381 3 1 1 218 7.278611 -1.73711 124.3357 7.908569 -1.123841 127.3169 0 1 40 
382 3 1 1 224 7.914985 -2.753706 124.3357 8.544829 -2.124065 130.6853 0 0 
383 3 1 1 224 7.278639 -2.753945 124.3357 7.908569 -2.124421 130.6853 0 2 -338 -339 
384 3 1 1 224 5.675336 -5.29902 126.2089 6.305294 -4.669334 130.6853 0 1 -36 
385 3 1 1 50 -7.908565 1.11406 124.3357 -7.278608 1.734031 130.6853 0 0 
386 3 1 1 50 -8.544827 1.115072 124.3357 -7.914868 1.734219 125.9024 0 3 247 -360 -361 
387 3 1 1 148 -2.265286 -1.744009 126.2778 -1.635333 -1.114802 130.6853 0 1 -196 
388 3 1 1 148 -2.26518 -2.753748 124.3357 -1.635333 -2.124053 130.6853 0 0 
389 3 1 1 148 -2.901522 -2.75395 124.3357 -2.271593 -2.124404 130.6853 0 2 -368 -369 
390 3 1 1 146 -2.26334 -1.740001 125.28 -1.635349 -1.123128 126.7005 0 3 196 -348 -349 
391 3 1 1 146 -2.901551 -1.743022 124.3357 -2.271593 -1.118081 130.6853 0 0 
392 3 1 1 167 -6.3052 -4.289001 126.4523 -5.675333 -3.659402 130.6853 0 1 205 
393 3 1 1 167 -6.941353 -4.286019 126.9116 -6.311593 -3.663126 130.6853 0 1 150 
394 3 1 1 167 -8.544827 -5.299049 128.4385 -7.914868 -4.6692 130.6853 0 1 -151 
395 3 1 1 176 -6.305112 -5.298921 127.0249 -5.675333 -4.669126 130.6853 0 2 -362 -363 
396 3 1 1 176 -6.941517 -5.289418 127.0091 -6.311593 -4.669761 130.6853 0 0 
$EndPartitionedEntities
$Nodes
5 105 266 16749
2 39 0 5
5895
267
268
266
5894
7.911338 -1.140329 116.3357
8.411719 -1.42903 116.3357
8.396176000000001 -1.305331 116.3357
7.427261 -1.305331 116.3357
7.855036 -1.925807 116.3357
2 40 0 5
16681
16683
16680
16673
16674
7.44122 -1.704704 127.2421
7.838419 -1.627198 127.2757
7.467183 -1.140527 127.3169
7.278752 -1.419531 127.1099
7.841129 -1.234258 127.2691
2 42 0 7
10152
10075
10072
10090
10085
10083
10088
7.883747 -1.415411 120.5404
7.421886 -1.52935 120.6935
7.592115 -1.044513 120.8131
8.103683 -1.890711 121.1101
7.615273 -1.831671 121.1638
8.410231 -1.467567 121.0605
8.117520000000001 -0.9733483000000001 121.0289
3 324 0 40
10087
10079
10076
10151
10094
10086
10077
10073
10069
10074
10084
10070
10068
10067
10078
10080
10096
10095
10103
10071
10106
10113
10104
10114
10115
10158
10105
10134
10125
10159
10116
10138
10127
10160
10126
10139
10140
10137
10147
10064
7.894986 -1.92875 119.0116
7.648382 -1.854064 119.6658
8.261088000000001 -1.786718 119.7769
7.771739 -1.376103 119.6344
8.054778000000001 -0.9499327 118.9615
8.323861000000001 -1.145942 119.6366
7.886965 -0.929643 119.605
8.392008000000001 -1.290027 120.3719
7.937838 -0.9297125000000001 120.2536
8.289021 -1.757119 120.5289
7.798183 -1.915969 120.4253
7.530085 -1.105988 119.8713
7.431162 -1.567106 120.1092
7.482614 -1.172379 120.3542
7.542626 -1.091731 119.2728
7.438147 -1.589436 119.0684
7.483896 -1.687811 118.3367
7.515205 -1.124436 118.665
8.398959 -1.541265 118.9219
7.412374 -1.45462 119.594
8.087126 -1.897252 118.2753
8.400669000000001 -1.533563 118.1587
8.325488 -1.148326 118.3988
7.929254 -0.9293374 118.2238
7.700435 -1.882196 117.6434
7.830801 -1.41552 117.9319
7.499025 -1.146746 118.0719
8.323926 -1.146036 117.6741
7.773204 -0.948599 117.5655
7.849069 -1.448699 117.309
7.412248 -1.406019 117.5867
8.260839000000001 -1.786962 116.832
7.906862 -1.929006 117.0552
8.046011 -1.471307 116.6091
8.282124 -1.764887 117.529
7.478903 -1.67937 116.9656
7.556743 -1.076905 116.9557
8.140082 -0.9842263 116.9721
8.410473 -1.393765 116.971
7.913245 -0.9290322 116.3357
3 325 0 48
16738
16737
16743
16744
16672
16671
16670
877
16739
16740
16728
16720
16716
16745
16727
16723
16722
16746
16721
16710
16678
16677
16676
16689
16687
16675
16679
16748
16699
16688
16749
16686
16700
16702
16692
16698
16691
16701
16690
16709
16711
16712
16713
16732
16733
16731
16736
16669
7.505684 -1.731495 130.2426
7.278693 -1.436341 130.2404
7.597938 -1.429168 130.4633
7.597917 -1.428599 130.0217
7.699583 -1.72564 130.6853
7.345599 -1.62323 130.6853
7.336745 -1.2467 130.6853
7.908569 -1.42903 130.6853
7.853155 -1.607461 130.2462
7.844917 -1.23917 130.2427
7.344917 -1.622356 129.8008
7.517316 -1.734636 129.364
7.279016 -1.445054 129.3293
7.59808 -1.425978 129.5749
7.333305 -1.251646 129.7857
7.859392 -1.59803 129.3668
7.839981 -1.232807 129.3465
7.605522 -1.43127 129.1234
7.48244 -1.134312 129.3217
7.325195 -1.264174 128.808
7.622042 -1.742722 127.6792
7.843285 -1.62103 127.7465
7.907466 -1.402693 127.6304
7.745951 -1.153352 127.8425
7.388498 -1.189968 127.8814
7.278668 -1.422892 127.5393
7.375351 -1.656153 127.7045
7.631894 -1.433706 128.1703
7.542343 -1.118246 128.351
7.312669 -1.286562 128.3104
7.608613 -1.439743 128.6484
7.282487 -1.478309 127.9971
7.851632 -1.248403 128.4191
7.567427 -1.742922 128.5137
7.452242 -1.710515 128.0841
7.304968 -1.555167 128.4535
7.740906 -1.707436 128.1079
7.862664 -1.592771 128.5052
7.907879 -1.449869 128.0589
7.369363 -1.650243 128.9149
7.688073 -1.128555 128.8608
7.908001 -1.410121 128.907
7.723521 -1.715962 128.9333
7.680335 -1.12623 129.79
7.908304 -1.416113 129.8018
7.703688 -1.724141 129.8047
7.491436 -1.131075 130.2401
7.694297 -1.130583 130.6853
$EndNodes
$Elements
5 245 28657 62387
2 39 2 3
60239 5895 267 268 
60240 266 5894 5895 
60241 5894 267 5895 
2 40 2 3
60242 16681 16683 16680 
60243 16673 16681 16680 
60264 16674 16680 16683 
2 42 2 6
60249 10152 10075 10072 
60250 10090 10085 10152 
60251 10085 10075 10152 
60819 10090 10152 10083 
62329 10088 10083 10152 
62387 10088 10152 10072 
3 324 4 114
28657 10087 10079 10076 10151 
28659 10094 10086 10077 10151 
28660 10073 10069 10151 10152 
28663 10090 10074 10084 10152 
28665 10090 10083 10074 10152 
28666 10076 10074 10073 10152 
28667 10090 10084 10085 10152 
28669 10077 10069 10070 10151 
28670 10076 10151 10068 10152 
28671 10075 10067 10072 10152 
28672 10088 10073 10083 10152 
28673 10094 10078 10080 10151 
28674 10078 10077 10070 10151 
28675 10096 10087 10095 10080 
28676 10103 10086 10094 10151 
28677 10084 10076 10079 10068 
28678 10071 10070 10068 10151 
28679 10095 10103 10094 10087 
28680 10094 10080 10087 10151 
28681 10078 10070 10071 10151 
28683 10083 10073 10074 10152 
28686 10070 10069 10067 10152 
28687 10075 10068 10067 10152 
28688 10084 10068 10075 10152 
28690 10085 10084 10075 10152 
28693 10088 10072 10069 10152 
28694 10086 10069 10077 10151 
28702 10087 10106 10096 10103 
28704 10095 10087 10094 10080 
28706 10103 10076 10086 10151 
28708 10079 10068 10076 10151 
28710 10103 10094 10087 10151 
28712 10113 10104 10106 10103 
28715 10103 10096 10095 10104 
28717 10095 10080 10094 10078 
28718 10080 10078 10071 10151 
28720 10114 10106 10104 10096 
28721 10114 10096 10104 10095 
28738 10079 10071 10068 10151 
28742 10114 10106 10113 10104 
28743 10096 10115 10158 10106 
28745 10087 10096 10095 10103 
28747 10094 10077 10078 10151 
28748 10114 10105 10096 10095 
28749 10105 10115 10158 10096 
28750 10134 10114 10113 10104 
28752 10114 10134 10158 10125 
28753 10115 10113 10159 10158 
28754 10116 10115 10105 10096 
28756 10138 10127 10159 10160 
28757 10127 10115 10126 10159 
28758 10139 10116 10115 10159 
28759 10159 10125 10105 10158 
28771 266 10140 10139 10160 
28772 5894 10127 10138 10160 
28775 10080 10071 10079 10151 
28776 10114 10095 10104 10094 
28777 10140 10159 10139 10160 
28779 10140 10137 10159 10160 
28780 10103 10106 10096 10104 
28781 10106 10115 10158 10113 
28782 10126 10159 10113 10134 
28783 10115 10126 10159 10113 
28790 10140 10116 10139 10159 
28792 10147 10126 10134 10159 
28794 10104 10103 10094 10095 
28796 10138 10127 10126 10159 
28798 10087 10080 10079 10151 
28803 10125 10105 10116 10159 
28821 10139 10115 10127 10159 
28822 10070 10067 10068 10152 
28823 10137 10134 10125 10159 
28824 10147 10134 10137 10159 
28825 10140 10137 10125 10159 
28826 266 5895 10140 10160 
28827 10125 10134 10158 10159 
28828 267 10147 268 10160 
28829 10139 10159 10127 10160 
28838 10147 10159 10137 10160 
28853 5894 10138 267 10160 
28854 5894 10139 10127 10160 
28855 10137 10160 5895 268 
28859 5895 10137 10140 10160 
28860 10160 10147 268 10137 
28861 10126 10113 10115 10106 
28862 10147 10138 10126 10159 
28863 5894 267 5895 10160 
28864 266 10139 5894 10160 
28884 10086 10076 10073 10151 
28885 5895 268 10064 10137 
28886 268 10160 5895 267 
28887 267 10138 10147 10160 
28888 266 5894 5895 10160 
28892 10070 10151 10069 10152 
28903 10140 10125 10116 10159 
28904 266 5895 10064 10140 
28905 10147 10138 10159 10160 
28906 10113 10159 10158 10134 
28907 10072 10067 10069 10152 
28908 5895 10064 10140 10137 
28909 10084 10074 10076 10152 
28910 10103 10087 10076 10151 
28911 10076 10073 10151 10152 
28912 10070 10068 10151 10152 
28913 10086 10073 10069 10151 
28914 10084 10076 10068 10152 
28915 10116 10105 10115 10159 
28917 10088 10069 10073 10152 
28918 10096 10158 10114 10106 
28919 10106 10158 10114 10113 
28920 10113 10158 10114 10134 
28921 10158 10125 10105 10114 
28922 10105 10158 10114 10096 
28923 10115 10158 10159 10105 
3 325 4 119
46606 16738 16737 16743 16744 
46607 16672 16671 16670 16743 
46608 877 16739 16672 16743 
46609 16740 16739 16743 16744 
46610 877 16740 16739 16743 
46611 16728 16720 16716 16745 
46612 16728 16727 16744 16745 
46613 16723 16745 16722 16746 
46614 16738 16728 16737 16744 
46615 16739 16738 16743 16744 
46621 16721 16716 16710 16746 
46623 16683 16678 16677 16676 
46624 16689 16676 16680 16674 
46625 16689 16687 16680 16675 
46626 16689 16679 16676 16748 
46627 16683 16681 16679 16675 
46629 16699 16688 16748 16749 
46630 16689 16679 16687 16675 
46631 16687 16686 16679 16748 
46632 16699 16687 16689 16748 
46633 16699 16688 16687 16748 
46636 16700 16699 16689 16748 
46637 16689 16687 16679 16748 
46638 16678 16679 16676 16683 
46640 16702 16692 16698 16748 
46642 16692 16691 16678 16748 
46643 16691 16677 16678 16748 
46649 16689 16676 16675 16680 
46651 16710 16698 16688 16749 
46655 16701 16690 16691 16748 
46657 16702 16691 16692 16748 
46659 16698 16692 16686 16748 
46663 16700 16689 16690 16748 
46669 16698 16748 16688 16749 
46670 16678 16677 16676 16748 
46673 16691 16690 16677 16748 
46680 16700 16699 16748 16749 
46681 16702 16701 16691 16748 
46682 16701 16700 16748 16749 
46683 16710 16709 16698 16749 
46684 16698 16686 16688 16748 
46685 16710 16688 16699 16749 
46686 16711 16710 16699 16749 
46689 16702 16748 16698 16749 
46690 16721 16710 16711 16746 
46691 16702 16701 16748 16749 
46692 16692 16679 16686 16748 
46693 16712 16711 16700 16749 
46694 16701 16700 16690 16748 
46695 16712 16746 16711 16749 
46696 16690 16689 16676 16748 
46697 16713 16712 16701 16749 
46699 16722 16721 16711 16746 
46700 16713 16709 16746 16749 
46701 16723 16712 16713 16746 
46702 16711 16699 16700 16749 
46704 16713 16701 16702 16749 
46705 16683 16680 16681 16675 
46706 16713 16702 16709 16749 
46707 16710 16746 16709 16749 
46708 16720 16709 16716 16746 
46709 16711 16746 16710 16749 
46711 16688 16686 16687 16748 
46712 16720 16713 16709 16746 
46714 16709 16702 16698 16749 
46725 16716 16709 16710 16746 
46726 16727 16716 16721 16745 
46727 16723 16720 16745 16746 
46728 16713 16746 16712 16749 
46729 16728 16716 16727 16745 
46730 16723 16713 16720 16746 
46731 16732 16721 16722 16745 
46732 16712 16700 16701 16749 
46733 16680 16676 16675 16683 
46734 16733 16722 16723 16745 
46735 16731 16723 16720 16745 
46736 16733 16731 16744 16745 
46737 16731 16720 16728 16745 
46738 16722 16711 16712 16746 
46739 16732 16727 16721 16745 
46740 16733 16723 16731 16745 
46764 16736 16727 16732 16744 
46765 16732 16744 16727 16745 
46766 16731 16728 16744 16745 
46767 16669 16736 16740 16743 
46772 16739 16733 16731 16744 
46773 16687 16679 16686 16675 
46774 16733 16744 16732 16745 
46775 16740 16733 16739 16744 
46776 16733 16732 16722 16745 
46777 16721 16745 16716 16746 
46778 16737 16736 16743 16744 
46779 16720 16716 16745 16746 
46780 16740 16736 16732 16744 
46781 16740 16732 16733 16744 
46782 16740 16743 16736 16744 
46783 16669 877 16672 16743 
46786 16748 16679 16676 16678 
46787 16681 16675 16680 16673 
46789 16738 16731 16728 16744 
46790 16737 16727 16736 16744 
46791 16671 16738 16737 16743 
46792 16672 16738 16671 16743 
46793 16722 16745 16721 16746 
46794 16671 16737 16670 16743 
46795 16669 16672 16670 16743 
46796 16683 16680 16676 16674 
46797 16692 16678 16679 16748 
46798 16739 16731 16738 16744 
46799 16669 16740 877 16743 
46800 16723 16722 16712 16746 
46801 16683 16679 16681 16678 
46803 16670 16737 16736 16743 
46804 16669 16670 16736 16743 
46805 16672 16739 16738 16743 
46806 16737 16728 16727 16744 
46811 16675 16679 16676 16689 
46812 16683 16679 16676 16675 
46813 16690 16676 16677 16748 
$EndElements
