$MeshFormat
2.2 0 8
$EndMeshFormat
$Nodes
56
1 1.4142140000000000e-01 -1.4142140000000000e-01 5.0000000000000000e+00
2 1.4142140000000000e-01 1.4142140000000000e-01 5.0000000000000000e+00
3 -1.4142140000000000e-01 1.4142140000000000e-01 5.0000000000000000e+00
4 -1.4142140000000000e-01 -1.4142140000000000e-01 5.0000000000000000e+00
5 7.0710680000000004e-01 7.0710680000000004e-01 -5.0000000000000000e+00
6 7.0710680000000004e-01 -7.0710680000000004e-01 -5.0000000000000000e+00
7 -7.0710680000000004e-01 -7.0710680000000004e-01 -5.0000000000000000e+00
8 -7.0710680000000004e-01 7.0710680000000004e-01 -5.0000000000000000e+00
9 -1.0332330000000001e-01 2.2204459999999999e-16 -5.0000000000000000e+00
10 -1.5967360000000000e-01 -1.5967360000000000e-01 4.6773420000000003e+00
11 -1.8331270000000000e-01 -1.8331270000000000e-01 4.2594580000000004e+00
12 -2.1389839999999999e-01 -2.1389839999999999e-01 3.7187749999999999e+00
13 -2.5363890000000000e-01 -2.5363890000000000e-01 3.0162559999999998e+00
14 -3.0526399999999998e-01 -3.0526399999999998e-01 2.1036450000000002e+00
15 -3.6835679999999998e-01 -3.6835679999999998e-01 9.8831069999999999e-01
16 -4.3609419999999999e-01 -4.3609419999999999e-01 -2.0912929999999999e-01
17 -5.0384739999999995e-01 -5.0384739999999995e-01 -1.4068470000000000e+00
18 -5.7160049999999996e-01 -5.7160049999999996e-01 -2.6045650000000000e+00
19 -6.3935359999999997e-01 -6.3935359999999997e-01 -3.8022819999999999e+00
20 1.5967360000000000e-01 -1.5967360000000000e-01 4.6773420000000003e+00
21 1.8331270000000000e-01 -1.8331270000000000e-01 4.2594580000000004e+00
22 2.1389839999999999e-01 -2.1389839999999999e-01 3.7187749999999999e+00
23 2.5363890000000000e-01 -2.5363890000000000e-01 3.0162559999999998e+00
24 3.0526399999999998e-01 -3.0526399999999998e-01 2.1036450000000002e+00
25 3.6835679999999998e-01 -3.6835679999999998e-01 9.8831069999999999e-01
26 4.3609419999999999e-01 -4.3609419999999999e-01 -2.0912929999999999e-01
27 5.0384739999999995e-01 -5.0384739999999995e-01 -1.4068470000000000e+00
28 5.7160049999999996e-01 -5.7160049999999996e-01 -2.6045650000000000e+00
29 6.3935359999999997e-01 -6.3935359999999997e-01 -3.8022819999999999e+00
30 -1.5967360000000000e-01 1.5967360000000000e-01 4.6773420000000003e+00
31 -1.8331270000000000e-01 1.8331270000000000e-01 4.2594580000000004e+00
32 -2.1389839999999999e-01 2.1389839999999999e-01 3.7187749999999999e+00
33 -2.5363890000000000e-01 2.5363890000000000e-01 3.0162559999999998e+00
34 -3.0526399999999998e-01 3.0526399999999998e-01 2.1036450000000002e+00
35 -3.6835679999999998e-01 3.6835679999999998e-01 9.8831069999999999e-01
36 -4.3609419999999999e-01 4.3609419999999999e-01 -2.0912929999999999e-01
37 -5.0384739999999995e-01 5.0384739999999995e-01 -1.4068470000000000e+00
38 -5.7160049999999996e-01 5.7160049999999996e-01 -2.6045650000000000e+00
39 -6.3935359999999997e-01 6.3935359999999997e-01 -3.8022819999999999e+00
40 1.5967360000000000e-01 1.5967360000000000e-01 4.6773420000000003e+00
41 1.8331270000000000e-01 1.8331270000000000e-01 4.2594580000000004e+00
42 2.1389839999999999e-01 2.1389839999999999e-01 3.7187749999999999e+00
43 2.5363890000000000e-01 2.5363890000000000e-01 3.0162559999999998e+00
44 3.0526399999999998e-01 3.0526399999999998e-01 2.1036450000000002e+00
45 3.6835679999999998e-01 3.6835679999999998e-01 9.8831069999999999e-01
46 4.3609419999999999e-01 4.3609419999999999e-01 -2.0912929999999999e-01
47 5.0384739999999995e-01 5.0384739999999995e-01 -1.4068470000000000e+00
48 5.7160049999999996e-01 5.7160049999999996e-01 -2.6045650000000000e+00
49 6.3935359999999997e-01 6.3935359999999997e-01 -3.8022819999999999e+00
50 -1.0223919999999999e-02 -9.8873899999999994e-03 4.6608250000000000e+00
51 -1.1631160000000000e-02 -4.5052389999999998e-02 -4.3798209999999997e+00
52 2.4325980000000001e-02 -1.2834580000000000e-02 -2.0593830000000000e+00
53 2.2433160000000001e-02 -2.2501830000000000e-02 -3.1922069999999998e+00
54 2.8537429999999999e-02 -7.1586300000000000e-03 3.7842090000000000e-01
55 8.6288349999999996e-03 -1.1899150000000001e-02 3.3649619999999998e+00
56 2.9069510000000000e-02 2.9099590000000002e-02 -8.0094220000000005e-01
$EndNodes
$Elements
112
1 4 2 0 0 1 20 4 50
2 4 2 0 0 11 41 31 50
3 4 2 0 0 7 8 39 51
4 4 2 0 0 18 38 37 52
5 4 2 0 0 27 47 48 52
6 4 2 0 0 18 38 52 53
7 4 2 0 0 28 27 48 52
8 4 2 0 0 5 39 8 51
9 4 2 0 0 6 7 29 51
10 4 2 0 0 5 9 6 51
11 4 2 0 0 3 2 1 50
12 4 2 0 0 3 1 4 50
13 4 2 0 0 27 37 47 52
14 4 2 0 0 2 30 40 50
15 4 2 0 0 15 45 25 54
16 4 2 0 0 15 35 45 54
17 4 2 0 0 15 25 26 54
18 4 2 0 0 23 22 43 55
19 4 2 0 0 13 32 12 55
20 4 2 0 0 13 33 32 55
21 4 2 0 0 32 33 42 55
22 4 2 0 0 12 32 42 55
23 4 2 0 0 31 41 30 50
24 4 2 0 0 20 41 21 50
25 4 2 0 0 4 20 10 50
26 4 2 0 0 4 10 30 50
27 4 2 0 0 1 40 20 50
28 4 2 0 0 21 41 11 50
29 4 2 0 0 26 54 46 56
30 4 2 0 0 26 47 27 56
31 4 2 0 0 15 36 35 54
32 4 2 0 0 16 36 54 56
33 4 2 0 0 36 47 46 56
34 4 2 0 0 29 19 18 53
35 4 2 0 0 5 29 49 51
36 4 2 0 0 26 46 47 56
37 4 2 0 0 19 39 38 53
38 4 2 0 0 17 27 37 56
39 4 2 0 0 7 39 19 51
40 4 2 0 0 39 48 38 53
41 4 2 0 0 17 37 16 56
42 4 2 0 0 16 37 36 56
43 4 2 0 0 17 37 27 52
44 4 2 0 0 16 26 27 56
45 4 2 0 0 29 51 19 53
46 4 2 0 0 5 8 9 51
47 4 2 0 0 18 52 28 53
48 4 2 0 0 28 52 48 53
49 4 2 0 0 17 27 28 52
50 4 2 0 0 17 18 37 52
51 4 2 0 0 29 48 49 53
52 4 2 0 0 29 49 51 53
53 4 2 0 0 9 8 7 51
54 4 2 0 0 12 32 11 42
55 4 2 0 0 19 38 18 53
56 4 2 0 0 12 42 22 55
57 4 2 0 0 19 51 39 53
58 4 2 0 0 13 43 33 55
59 4 2 0 0 14 15 34 44
60 4 2 0 0 14 34 43 44
61 4 2 0 0 16 54 26 56
62 4 2 0 0 37 38 47 52
63 4 2 0 0 1 2 40 50
64 4 2 0 0 17 28 18 52
65 4 2 0 0 17 16 27 56
66 4 2 0 0 24 25 15 45
67 4 2 0 0 5 49 39 51
68 4 2 0 0 35 46 45 54
69 4 2 0 0 10 31 30 50
70 4 2 0 0 24 15 14 44
71 4 2 0 0 27 47 37 56
72 4 2 0 0 3 4 30 50
73 4 2 0 0 38 48 47 52
74 4 2 0 0 13 12 23 55
75 4 2 0 0 10 20 21 50
76 4 2 0 0 3 30 2 50
77 4 2 0 0 15 35 44 45
78 4 2 0 0 29 18 28 53
79 4 2 0 0 20 40 41 50
80 4 2 0 0 10 21 11 50
81 4 2 0 0 5 6 29 51
82 4 2 0 0 6 9 7 51
83 4 2 0 0 11 41 22 42
84 4 2 0 0 23 12 22 55
85 4 2 0 0 10 11 31 50
86 4 2 0 0 30 41 40 50
87 4 2 0 0 12 11 22 42
88 4 2 0 0 21 22 11 41
89 4 2 0 0 11 32 31 41
90 4 2 0 0 33 43 42 55
91 4 2 0 0 24 15 44 45
92 4 2 0 0 36 46 35 54
93 4 2 0 0 29 28 48 53
94 4 2 0 0 23 24 14 43
95 4 2 0 0 39 49 48 53
96 4 2 0 0 38 48 52 53
97 4 2 0 0 24 14 43 44
98 4 2 0 0 22 42 43 55
99 4 2 0 0 15 16 36 54
100 4 2 0 0 36 46 54 56
101 4 2 0 0 25 45 46 54
102 4 2 0 0 11 32 41 42
103 4 2 0 0 14 34 33 43
104 4 2 0 0 13 14 33 43
105 4 2 0 0 13 23 14 43
106 4 2 0 0 15 26 16 54
107 4 2 0 0 15 35 34 44
108 4 2 0 0 37 47 36 56
109 4 2 0 0 26 25 46 54
110 4 2 0 0 13 23 43 55
111 4 2 0 0 39 51 49 53
112 4 2 0 0 7 19 29 51
$EndElements
